  0
SECTION
  2
HEADER
  9
$ACADVER
  1
AC1015
  9
$ACADMAINTVER
 70
     6
  9
$DWGCODEPAGE
  3
ANSI_1252
  9
$INSBASE
 10
0.0
 20
0.0
 30
0.0
  9
$EXTMIN
 10
-32.9670784646
 20
-32.958970286
 30
0.0
  9
$EXTMAX
 10
32.9563262781
 20
32.9565274617
 30
0.0
  9
$LIMMIN
 10
0.0
 20
0.0
  9
$LIMMAX
 10
420.0
 20
297.0
  9
$ORTHOMODE
 70
     0
  9
$REGENMODE
 70
     1
  9
$FILLMODE
 70
     1
  9
$QTEXTMODE
 70
     0
  9
$MIRRTEXT
 70
     1
  9
$LTSCALE
 40
1.0
  9
$ATTMODE
 70
     1
  9
$TEXTSIZE
 40
3.5
  9
$TRACEWID
 40
1.0
  9
$TEXTSTYLE
  7
Standard
  9
$CLAYER
  8
0
  9
$CELTYPE
  6
ByLayer
  9
$CECOLOR
 62
   256
  9
$CELTSCALE
 40
1.0
  9
$DISPSILH
 70
     0
  9
$DIMSCALE
 40
1.0
  9
$DIMASZ
 40
3.302
  9
$DIMEXO
 40
1.0
  9
$DIMDLI
 40
3.75
  9
$DIMRND
 40
0.0
  9
$DIMDLE
 40
0.0
  9
$DIMEXE
 40
1.0
  9
$DIMTP
 40
0.0
  9
$DIMTM
 40
0.0
  9
$DIMTXT
 40
3.5
  9
$DIMCEN
 40
2.5
  9
$DIMTSZ
 40
0.0
  9
$DIMTOL
 70
     0
  9
$DIMLIM
 70
     0
  9
$DIMTIH
 70
     1
  9
$DIMTOH
 70
     1
  9
$DIMSE1
 70
     0
  9
$DIMSE2
 70
     0
  9
$DIMTAD
 70
     1
  9
$DIMZIN
 70
     0
  9
$DIMBLK
  1

  9
$DIMASO
 70
     1
  9
$DIMSHO
 70
     1
  9
$DIMPOST
  1

  9
$DIMAPOST
  1

  9
$DIMALT
 70
     0
  9
$DIMALTD
 70
     3
  9
$DIMALTF
 40
0.0393700787
  9
$DIMLFAC
 40
1.0
  9
$DIMTOFL
 70
     1
  9
$DIMTVP
 40
0.0
  9
$DIMTIX
 70
     0
  9
$DIMSOXD
 70
     0
  9
$DIMSAH
 70
     0
  9
$DIMBLK1
  1

  9
$DIMBLK2
  1

  9
$DIMSTYLE
  2
ISO-25
  9
$DIMCLRD
 70
     0
  9
$DIMCLRE
 70
     0
  9
$DIMCLRT
 70
     0
  9
$DIMTFAC
 40
1.0
  9
$DIMGAP
 40
1.524
  9
$DIMJUST
 70
     0
  9
$DIMSD1
 70
     0
  9
$DIMSD2
 70
     0
  9
$DIMTOLJ
 70
     0
  9
$DIMTZIN
 70
     0
  9
$DIMALTZ
 70
     0
  9
$DIMALTTZ
 70
     0
  9
$DIMUPT
 70
     0
  9
$DIMDEC
 70
     2
  9
$DIMTDEC
 70
     2
  9
$DIMALTU
 70
     2
  9
$DIMALTTD
 70
     3
  9
$DIMTXSTY
  7
Standard
  9
$DIMAUNIT
 70
     0
  9
$DIMADEC
 70
     2
  9
$DIMALTRND
 40
0.0
  9
$DIMAZIN
 70
     0
  9
$DIMDSEP
 70
    44
  9
$DIMATFIT
 70
     3
  9
$DIMFRAC
 70
     0
  9
$DIMLDRBLK
  1

  9
$DIMLUNIT
 70
     2
  9
$DIMLWD
 70
    -2
  9
$DIMLWE
 70
    -2
  9
$DIMTMOVE
 70
     0
  9
$LUNITS
 70
     2
  9
$LUPREC
 70
     2
  9
$SKETCHINC
 40
1.0
  9
$FILLETRAD
 40
10.0
  9
$AUNITS
 70
     0
  9
$AUPREC
 70
     2
  9
$MENU
  1
.
  9
$ELEVATION
 40
0.0
  9
$PELEVATION
 40
0.0
  9
$THICKNESS
 40
0.0
  9
$LIMCHECK
 70
     0
  9
$CHAMFERA
 40
0.0
  9
$CHAMFERB
 40
0.0
  9
$CHAMFERC
 40
0.0
  9
$CHAMFERD
 40
0.0
  9
$SKPOLY
 70
     0
  9
$TDCREATE
 40
2456808.693817523
  9
$TDUCREATE
 40
2456808.193817523
  9
$TDUPDATE
 40
2456808.693842801
  9
$TDUUPDATE
 40
2456808.193842801
  9
$TDINDWG
 40
0.0000000116
  9
$TDUSRTIMER
 40
0.0000000116
  9
$USRTIMER
 70
     1
  9
$ANGBASE
 50
0.0
  9
$ANGDIR
 70
     0
  9
$PDMODE
 70
     0
  9
$PDSIZE
 40
-1.0
  9
$PLINEWID
 40
0.0
  9
$SPLFRAME
 70
     0
  9
$SPLINETYPE
 70
     6
  9
$SPLINESEGS
 70
     8
  9
$HANDSEED
  5
30A
  9
$SURFTAB1
 70
     6
  9
$SURFTAB2
 70
     6
  9
$SURFTYPE
 70
     6
  9
$SURFU
 70
     6
  9
$SURFV
 70
     6
  9
$UCSBASE
  2

  9
$UCSNAME
  2

  9
$UCSORG
 10
0.0
 20
0.0
 30
0.0
  9
$UCSXDIR
 10
1.0
 20
0.0
 30
0.0
  9
$UCSYDIR
 10
0.0
 20
1.0
 30
0.0
  9
$UCSORTHOREF
  2

  9
$UCSORTHOVIEW
 70
     0
  9
$UCSORGTOP
 10
0.0
 20
0.0
 30
0.0
  9
$UCSORGBOTTOM
 10
0.0
 20
0.0
 30
0.0
  9
$UCSORGLEFT
 10
0.0
 20
0.0
 30
0.0
  9
$UCSORGRIGHT
 10
0.0
 20
0.0
 30
0.0
  9
$UCSORGFRONT
 10
0.0
 20
0.0
 30
0.0
  9
$UCSORGBACK
 10
0.0
 20
0.0
 30
0.0
  9
$PUCSBASE
  2

  9
$PUCSNAME
  2

  9
$PUCSORG
 10
0.0
 20
0.0
 30
0.0
  9
$PUCSXDIR
 10
1.0
 20
0.0
 30
0.0
  9
$PUCSYDIR
 10
0.0
 20
1.0
 30
0.0
  9
$PUCSORTHOREF
  2

  9
$PUCSORTHOVIEW
 70
     0
  9
$PUCSORGTOP
 10
0.0
 20
0.0
 30
0.0
  9
$PUCSORGBOTTOM
 10
0.0
 20
0.0
 30
0.0
  9
$PUCSORGLEFT
 10
0.0
 20
0.0
 30
0.0
  9
$PUCSORGRIGHT
 10
0.0
 20
0.0
 30
0.0
  9
$PUCSORGFRONT
 10
0.0
 20
0.0
 30
0.0
  9
$PUCSORGBACK
 10
0.0
 20
0.0
 30
0.0
  9
$USERI1
 70
     0
  9
$USERI2
 70
     0
  9
$USERI3
 70
     0
  9
$USERI4
 70
     0
  9
$USERI5
 70
     0
  9
$USERR1
 40
0.0
  9
$USERR2
 40
0.0
  9
$USERR3
 40
0.0
  9
$USERR4
 40
0.0
  9
$USERR5
 40
0.0
  9
$WORLDVIEW
 70
     1
  9
$SHADEDGE
 70
     3
  9
$SHADEDIF
 70
    70
  9
$TILEMODE
 70
     1
  9
$MAXACTVP
 70
    64
  9
$PINSBASE
 10
0.0
 20
0.0
 30
0.0
  9
$PLIMCHECK
 70
     0
  9
$PEXTMIN
 10
1.0000000000E+20
 20
1.0000000000E+20
 30
1.0000000000E+20
  9
$PEXTMAX
 10
-1.0000000000E+20
 20
-1.0000000000E+20
 30
-1.0000000000E+20
  9
$PLIMMIN
 10
0.0
 20
0.0
  9
$PLIMMAX
 10
420.0
 20
297.0
  9
$UNITMODE
 70
     0
  9
$VISRETAIN
 70
     1
  9
$PLINEGEN
 70
     0
  9
$PSLTSCALE
 70
     1
  9
$TREEDEPTH
 70
  3020
  9
$CMLSTYLE
  2
Standard
  9
$CMLJUST
 70
     0
  9
$CMLSCALE
 40
20.0
  9
$PROXYGRAPHICS
 70
     1
  9
$MEASUREMENT
 70
     1
  9
$CELWEIGHT
370
    -1
  9
$ENDCAPS
280
     0
  9
$JOINSTYLE
280
     0
  9
$LWDISPLAY
290
     1
  9
$INSUNITS
 70
     4
  9
$HYPERLINKBASE
  1

  9
$STYLESHEET
  1

  9
$XEDIT
290
     1
  9
$CEPSNTYPE
380
     0
  9
$PSTYLEMODE
290
     1
  9
$FINGERPRINTGUID
  2
{891EA51E-A4A1-4992-B7EE-CE7101E6E35F}
  9
$VERSIONGUID
  2
{FAEB1C32-E019-11D5-929B-00C0DF256EC4}
  9
$EXTNAMES
290
     1
  9
$PSVPSCALE
 40
0.0
  9
$OLESTARTUP
290
     0
  0
ENDSEC
  0
SECTION
  2
CLASSES
  0
CLASS
  1
ACDBDICTIONARYWDFLT
  2
AcDbDictionaryWithDefault
  3
ObjectDBX Classes
 90
        0
280
     0
281
     0
  0
CLASS
  1
VISUALSTYLE
  2
AcDbVisualStyle
  3
ObjectDBX Classes
 90
     4095
280
     0
281
     0
  0
CLASS
  1
MATERIAL
  2
AcDbMaterial
  3
ObjectDBX Classes
 90
     1153
280
     0
281
     0
  0
CLASS
  1
SCALE
  2
AcDbScale
  3
ObjectDBX Classes
 90
     1153
280
     0
281
     0
  0
CLASS
  1
SUN
  2
AcDbSun
  3
SCENEOE
 90
     1153
280
     0
281
     0
  0
CLASS
  1
ACDBPLACEHOLDER
  2
AcDbPlaceHolder
  3
ObjectDBX Classes
 90
        0
280
     0
281
     0
  0
CLASS
  1
LAYOUT
  2
AcDbLayout
  3
ObjectDBX Classes
 90
        0
280
     0
281
     0
  0
ENDSEC
  0
SECTION
  2
TABLES
  0
TABLE
  2
VPORT
  5
8
330
0
100
AcDbSymbolTable
 70
     1
  0
VPORT
  5
29
330
8
100
AcDbSymbolTableRecord
100
AcDbViewportTableRecord
  2
*Active
 70
     0
 10
0.0
 20
0.0
 11
1.0
 21
1.0
 12
-0.0053760933
 22
-0.0012214121
 13
0.0
 23
0.0
 14
10.0
 24
10.0
 15
10.0
 25
10.0
 16
0.0
 26
0.0
 36
1.0
 17
0.0
 27
0.0
 37
0.0
 40
67.2338077026
 41
1.0001199565
 42
50.0
 43
0.0
 44
0.0
 50
0.0
 51
0.0
 71
     0
 72
   100
 73
     1
 74
     3
 75
     0
 76
     0
 77
     0
 78
     0
281
     0
 65
     1
110
0.0
120
0.0
130
0.0
111
1.0
121
0.0
131
0.0
112
0.0
122
1.0
132
0.0
 79
     0
146
0.0
  0
ENDTAB
  0
TABLE
  2
LTYPE
  5
5
330
0
100
AcDbSymbolTable
 70
     6
  0
LTYPE
  5
14
330
5
100
AcDbSymbolTableRecord
100
AcDbLinetypeTableRecord
  2
ByBlock
 70
     0
  3

 72
    65
 73
     0
 40
0.0
  0
LTYPE
  5
15
330
5
100
AcDbSymbolTableRecord
100
AcDbLinetypeTableRecord
  2
ByLayer
 70
     0
  3

 72
    65
 73
     0
 40
0.0
  0
LTYPE
  5
16
330
5
100
AcDbSymbolTableRecord
100
AcDbLinetypeTableRecord
  2
Continuous
 70
     0
  3
Solid line
 72
    65
 73
     0
 40
0.0
  0
LTYPE
  5
6A
330
5
100
AcDbSymbolTableRecord
100
AcDbLinetypeTableRecord
  2
HIDDEN
 70
     0
  3
Hidden __ __ __ __ __ __ __ __ __ __ __ __ __ __
 72
    65
 73
     2
 40
1.905
 49
1.27
 74
     0
 49
-0.635
 74
     0
  0
LTYPE
  5
6B
330
5
100
AcDbSymbolTableRecord
100
AcDbLinetypeTableRecord
  2
PHANTOM
 70
     0
  3
Phantom ______  __  __  ______  __  __  ______
 72
    65
 73
     6
 40
12.7
 49
6.35
 74
     0
 49
-1.27
 74
     0
 49
1.27
 74
     0
 49
-1.27
 74
     0
 49
1.27
 74
     0
 49
-1.27
 74
     0
  0
LTYPE
  5
6C
330
5
100
AcDbSymbolTableRecord
100
AcDbLinetypeTableRecord
  2
CENTER
 70
     0
  3
Center ____ _ ____ _ ____ _ ____ _ ____ _ ____
 72
    65
 73
     4
 40
10.16
 49
6.35
 74
     0
 49
-1.27
 74
     0
 49
1.27
 74
     0
 49
-1.27
 74
     0
  0
LTYPE
  5
6D
330
5
100
AcDbSymbolTableRecord
100
AcDbLinetypeTableRecord
  2
CENTERX2
 70
     0
  3
Center (2x) ________  __  ________  __  _____
 72
    65
 73
     4
 40
20.32
 49
12.7
 74
     0
 49
-2.54
 74
     0
 49
2.54
 74
     0
 49
-2.54
 74
     0
  0
LTYPE
  5
6E
330
5
100
AcDbSymbolTableRecord
100
AcDbLinetypeTableRecord
  2
DOT2
 70
     0
  3
Dot (.5x) ........................................
 72
    65
 73
     2
 40
0.635
 49
0.0
 74
     0
 49
-0.635
 74
     0
  0
ENDTAB
  0
TABLE
  2
LAYER
  5
2
330
0
100
AcDbSymbolTable
 70
     1
  0
LAYER
  5
10
330
2
100
AcDbSymbolTableRecord
100
AcDbLayerTableRecord
  2
0
 70
     0
 62
     7
  6
Continuous
370
    -3
390
F
  0
ENDTAB
  0
TABLE
  2
STYLE
  5
3
330
0
100
AcDbSymbolTable
 70
     1
  0
STYLE
  5
11
330
3
100
AcDbSymbolTableRecord
100
AcDbTextStyleTableRecord
  2
Standard
 70
     0
 40
0.0
 41
1.0
 50
0.0
 71
     0
 42
3.5
  3
txt
  4

  0
ENDTAB
  0
TABLE
  2
VIEW
  5
6
330
0
100
AcDbSymbolTable
 70
     0
  0
ENDTAB
  0
TABLE
  2
UCS
  5
7
330
0
100
AcDbSymbolTable
 70
     0
  0
ENDTAB
  0
TABLE
  2
APPID
  5
9
330
0
100
AcDbSymbolTable
 70
     1
  0
APPID
  5
12
330
9
100
AcDbSymbolTableRecord
100
AcDbRegAppTableRecord
  2
ACAD
 70
     0
  0
ENDTAB
  0
TABLE
  2
DIMSTYLE
  5
A
330
0
100
AcDbSymbolTable
 70
     1
100
AcDbDimStyleTable
  0
DIMSTYLE
105
27
330
A
100
AcDbSymbolTableRecord
100
AcDbDimStyleTableRecord
  2
ISO-25
 70
     0
 41
2.5
 42
0.625
 43
3.75
 44
1.25
 73
     0
 74
     0
 77
     1
 78
     8
140
2.5
141
2.5
143
0.0393700787
147
0.625
171
     3
172
     1
178
     0
271
     2
272
     2
274
     3
278
    44
283
     0
284
     8
340
11
  0
ENDTAB
  0
TABLE
  2
BLOCK_RECORD
  5
1
330
0
100
AcDbSymbolTable
 70
     1
  0
BLOCK_RECORD
  5
1F
330
1
100
AcDbSymbolTableRecord
100
AcDbBlockTableRecord
  2
*Model_Space
340
22
  0
BLOCK_RECORD
  5
1B
330
1
100
AcDbSymbolTableRecord
100
AcDbBlockTableRecord
  2
*Paper_Space
340
1E
  0
BLOCK_RECORD
  5
23
330
1
100
AcDbSymbolTableRecord
100
AcDbBlockTableRecord
  2
*Paper_Space0
340
26
  0
ENDTAB
  0
ENDSEC
  0
SECTION
  2
BLOCKS
  0
BLOCK
  5
20
330
1F
100
AcDbEntity
  8
0
100
AcDbBlockBegin
  2
*Model_Space
 70
     0
 10
0.0
 20
0.0
 30
0.0
  3
*Model_Space
  1
*Model_Space
  0
ENDBLK
  5
21
330
1F
100
AcDbEntity
  8
0
100
AcDbBlockEnd
  0
BLOCK
  5
1C
330
1B
100
AcDbEntity
 67
     1
  8
0
100
AcDbBlockBegin
  2
*Paper_Space
 70
     0
 10
0.0
 20
0.0
 30
0.0
  3
*Paper_Space
  1
*Paper_Space
  0
ENDBLK
  5
1D
330
1B
100
AcDbEntity
 67
     1
  8
0
100
AcDbBlockEnd
  0
BLOCK
  5
24
330
23
100
AcDbEntity
  8
0
100
AcDbBlockBegin
  2
*Paper_Space0
 70
     0
 10
0.0
 20
0.0
 30
0.0
  3
*Paper_Space0
  1
*Paper_Space0
  0
ENDBLK
  5
25
330
23
100
AcDbEntity
  8
0
100
AcDbBlockEnd
  0
ENDSEC
  0
SECTION
  2
ENTITIES
  0
CIRCLE
  5
89
330
1F
100
AcDbEntity
  8
0
  6
Continuous
 62
     7
370
    15
100
AcDbCircle
 10
-0.0107723547
 20
-0.002458452
 30
0.0
 40
4.999988115981606
  0
CIRCLE
  5
11A
330
1F
100
AcDbEntity
  8
0
  6
Continuous
 62
     7
370
    15
100
AcDbCircle
 10
-7.3646087239
 20
3.2736466936
 30
0.0
 40
0.8999977579817376
  0
CIRCLE
  5
11B
330
1F
100
AcDbEntity
  8
0
  6
Continuous
 62
     7
370
    15
100
AcDbCircle
 10
-7.1499928848
 20
-3.7230608003
 30
0.0
 40
0.8999977579817379
  0
CIRCLE
  5
11C
330
1F
100
AcDbEntity
  8
0
  6
Continuous
 62
     7
370
    15
100
AcDbCircle
 10
3.7098571257
 20
-7.1417376984
 30
0.0
 40
0.899997757981737
  0
CIRCLE
  5
11D
330
1F
100
AcDbEntity
  8
0
  6
Continuous
 62
     7
370
    15
100
AcDbCircle
 10
-3.2868071233
 20
-7.3563344254
 30
0.0
 40
0.8999977579817379
  0
CIRCLE
  5
11E
330
1F
100
AcDbEntity
  8
0
  6
Continuous
 62
     7
370
    15
100
AcDbCircle
 10
7.3430973453
 20
-3.2785390086
 30
0.0
 40
0.8999977579817362
  0
CIRCLE
  5
11F
330
1F
100
AcDbEntity
  8
0
  6
Continuous
 62
     7
370
    15
100
AcDbCircle
 10
7.1284815061
 20
3.7181684853
 30
0.0
 40
0.8999977579817362
  0
CIRCLE
  5
120
330
1F
100
AcDbEntity
  8
0
  6
Continuous
 62
     7
370
    15
100
AcDbCircle
 10
3.2652957447
 20
7.3514421105
 30
0.0
 40
0.8999977579817362
  0
CIRCLE
  5
121
330
1F
100
AcDbEntity
  8
0
  6
Continuous
 62
     7
370
    15
100
AcDbCircle
 10
-3.7313685043
 20
7.1368453834
 30
0.0
 40
0.8999977579817382
  0
CIRCLE
  5
122
330
1F
100
AcDbEntity
  8
0
  6
Continuous
 62
     7
370
    15
100
AcDbCircle
 10
-0.2330363798
 20
7.244143747
 30
0.0
 40
0.8999977579817359
  0
CIRCLE
  5
123
330
1F
100
AcDbEntity
  8
0
  6
Continuous
 62
     7
370
    15
100
AcDbCircle
 10
0.2115250012
 20
-7.2490360619
 30
0.0
 40
0.8999977579817376
  0
CIRCLE
  5
124
330
1F
100
AcDbEntity
  8
0
  6
Continuous
 62
     7
370
    15
100
AcDbCircle
 10
7.2357894257
 20
0.2198147384
 30
0.0
 40
0.8999977579817362
  0
CIRCLE
  5
125
330
1F
100
AcDbEntity
  8
0
  6
Continuous
 62
     7
370
    15
100
AcDbCircle
 10
-7.2573008044
 20
-0.2247070533
 30
0.0
 40
0.8999977579817396
  0
LWPOLYLINE
  5
180
330
1F
100
AcDbEntity
  8
0
  6
Continuous
 62
     7
370
    15
100
AcDbPolyline
 90
        3
 70
   128
 43
0.0
 10
16.3878883753
 20
-28.5417179287
 10
16.5166593573
 20
-28.5031988432
 10
16.6926543107
 20
-28.4168580993
  0
LWPOLYLINE
  5
1BF
330
1F
100
AcDbEntity
  8
0
  6
Continuous
 62
     7
370
    15
100
AcDbPolyline
 90
        3
 70
   128
 43
0.0
 10
-26.5420823678
 20
-18.4383538298
 10
-26.4133113858
 20
-18.3998347442
 10
-26.2373164324
 20
-18.3134940004
  0
LINE
  5
1C4
330
1F
100
AcDbEntity
  8
0
  6
Continuous
 62
     7
370
    15
100
AcDbLine
 10
30.1499363302
 20
10.9163170319
 30
0.0
 11
30.1391841542
 21
10.9138742076
 31
0.0
  0
LINE
  5
1C5
330
1F
100
AcDbEntity
  8
0
  6
Continuous
 62
     7
370
    15
100
AcDbLine
 10
32.1671280525
 20
-0.7603991777
 30
0.0
 11
32.1778802286
 21
-0.7579563534
 31
0.0
  0
LINE
  5
1C6
330
1F
100
AcDbEntity
  8
0
  6
Continuous
 62
     7
370
    15
100
AcDbLine
 10
26.5420823678
 20
18.4383538298
 30
0.0
 11
26.5313301918
 21
18.4359110055
 31
0.0
  0
LINE
  5
1C7
330
1F
100
AcDbEntity
  8
0
  6
Continuous
 62
     7
370
    15
100
AcDbLine
 10
31.1344799564
 20
-9.0387578915
 30
0.0
 11
31.1452321325
 21
-9.0363150672
 31
0.0
  0
LINE
  5
1C8
330
1F
100
AcDbEntity
  8
0
  6
Continuous
 62
     7
370
    15
100
AcDbLine
 10
21.1103312507
 20
24.7703021155
 30
0.0
 11
21.0995790747
 21
24.7678592912
 31
0.0
  0
LINE
  5
1C9
330
1F
100
AcDbEntity
  8
0
  6
Continuous
 62
     7
370
    15
100
AcDbLine
 10
27.9944338646
 20
-16.7677614973
 30
0.0
 11
28.0051860407
 21
-16.765318673
 31
0.0
  0
LINE
  5
1CA
330
1F
100
AcDbEntity
  8
0
  6
Continuous
 62
     7
370
    15
100
AcDbLine
 10
14.2248478411
 20
29.4806500775
 30
0.0
 11
14.2140956651
 21
29.4782072532
 31
0.0
  0
LINE
  5
1CB
330
1F
100
AcDbEntity
  8
0
  6
Continuous
 62
     7
370
    15
100
AcDbLine
 10
22.9609787291
 20
-23.4206911721
 30
0.0
 11
22.9717309052
 21
-23.4182483478
 31
0.0
  0
LINE
  5
1CC
330
1F
100
AcDbEntity
  8
0
  6
Continuous
 62
     7
370
    15
100
AcDbLine
 10
6.3548664546
 20
32.2483952863
 30
0.0
 11
6.3441142785
 21
32.245952462
 31
0.0
  0
LINE
  5
1CD
330
1F
100
AcDbEntity
  8
0
  6
Continuous
 62
     7
370
    15
100
AcDbLine
 10
16.3771361993
 20
-28.544160753
 30
0.0
 11
16.3878883753
 21
-28.5417179287
 31
0.0
  0
LINE
  5
1CE
330
1F
100
AcDbEntity
  8
0
  6
Continuous
 62
     7
370
    15
100
AcDbLine
 10
-1.9632866832
 20
32.8849204799
 30
0.0
 11
-1.9740388592
 21
32.8824776556
 31
0.0
  0
LINE
  5
1CF
330
1F
100
AcDbEntity
  8
0
  6
Continuous
 62
     7
370
    15
100
AcDbLine
 10
-6.6464286226
 20
29.2544866057
 30
0.0
 11
-6.6571807987
 21
29.2520437814
 31
0.0
  0
LINE
  5
1D0
330
1F
100
AcDbEntity
  8
0
  6
Continuous
 62
     7
370
    15
100
AcDbLine
 10
8.6915842631
 20
-31.7890142551
 30
0.0
 11
8.7023364392
 21
-31.7865714308
 31
0.0
  0
LINE
  5
1D1
330
1F
100
AcDbEntity
  8
0
  6
Continuous
 62
     7
370
    15
100
AcDbLine
 10
6.6356764466
 20
-29.25692943
 30
0.0
 11
6.6464286226
 21
-29.2544866057
 31
0.0
  0
LINE
  5
1D2
330
1F
100
AcDbEntity
  8
0
  6
Continuous
 62
     7
370
    15
100
AcDbLine
 10
-8.7023364392
 20
31.7865714308
 30
0.0
 11
-8.7130886152
 21
31.7841286065
 31
0.0
  0
LINE
  5
1D3
330
1F
100
AcDbEntity
  8
0
  6
Continuous
 62
     7
370
    15
100
AcDbLine
 10
1.9525345071
 20
-32.8873633042
 30
0.0
 11
1.9632866832
 21
-32.8849204799
 31
0.0
  0
LINE
  5
1D4
330
1F
100
AcDbEntity
  8
0
  6
Continuous
 62
     7
370
    15
100
AcDbLine
 10
-16.3878883753
 20
28.5417179287
 30
0.0
 11
-16.3986405514
 21
28.5392751044
 31
0.0
  0
LINE
  5
1D5
330
1F
100
AcDbEntity
  8
0
  6
Continuous
 62
     7
370
    15
100
AcDbLine
 10
-6.3656186306
 20
-32.2508381106
 30
0.0
 11
-6.3548664546
 21
-32.2483952863
 31
0.0
  0
LINE
  5
1D6
330
1F
100
AcDbEntity
  8
0
  6
Continuous
 62
     7
370
    15
100
AcDbLine
 10
-22.9717309052
 20
23.4182483478
 30
0.0
 11
-22.9824830812
 21
23.4158055235
 31
0.0
  0
LINE
  5
1D7
330
1F
100
AcDbEntity
  8
0
  6
Continuous
 62
     7
370
    15
100
AcDbLine
 10
-14.2356000172
 20
-29.4830929018
 30
0.0
 11
-14.2248478411
 21
-29.4806500775
 31
0.0
  0
LINE
  5
1D8
330
1F
100
AcDbEntity
  8
0
  6
Continuous
 62
     7
370
    15
100
AcDbLine
 10
-28.0051860407
 20
16.765318673
 30
0.0
 11
-28.0159382167
 21
16.7628758487
 31
0.0
  0
LINE
  5
1D9
330
1F
100
AcDbEntity
  8
0
  6
Continuous
 62
     7
370
    15
100
AcDbLine
 10
-21.1210834268
 20
-24.7727449398
 30
0.0
 11
-21.1103312507
 21
-24.7703021155
 31
0.0
  0
LINE
  5
1DA
330
1F
100
AcDbEntity
  8
0
  6
Continuous
 62
     7
370
    15
100
AcDbLine
 10
-31.1452321325
 20
9.0363150672
 30
0.0
 11
-31.1559843085
 21
9.0338722429
 31
0.0
  0
LINE
  5
1DB
330
1F
100
AcDbEntity
  8
0
  6
Continuous
 62
     7
370
    15
100
AcDbLine
 10
-26.5528345439
 20
-18.4407966541
 30
0.0
 11
-26.5420823678
 21
-18.4383538298
 31
0.0
  0
LINE
  5
1DC
330
1F
100
AcDbEntity
  8
0
  6
Continuous
 62
     7
370
    15
100
AcDbLine
 10
-32.1778802286
 20
0.7579563534
 30
0.0
 11
-32.1886324047
 21
0.7555135291
 31
0.0
  0
LINE
  5
1DD
330
1F
100
AcDbEntity
  8
0
  6
Continuous
 62
     7
370
    15
100
AcDbLine
 10
-30.1606885063
 20
-10.9187598562
 30
0.0
 11
-30.1499363302
 21
-10.9163170319
 31
0.0
  0
LINE
  5
1DE
330
1F
100
AcDbEntity
  8
0
  6
Continuous
 62
     7
370
    15
100
AcDbLine
 10
28.9678267829
 20
-13.568063075
 30
0.0
 11
27.2059419541
 21
-12.6216323522
 31
0.0
  0
LINE
  5
1DF
330
1F
100
AcDbEntity
  8
0
  6
Continuous
 62
     7
370
    15
100
AcDbLine
 10
28.6538286583
 20
-16.2658273052
 30
0.0
 11
29.3755592894
 21
-14.9222248359
 31
0.0
  0
LINE
  5
1E0
330
1F
100
AcDbEntity
  8
0
  6
Continuous
 62
     7
370
    15
100
AcDbLine
 10
25.537791507
 20
-15.7271276204
 30
0.0
 11
27.2996763359
 21
-16.6735583432
 31
0.0
  0
LINE
  5
1E1
330
1F
100
AcDbEntity
  8
0
  6
Continuous
 62
     7
370
    15
100
AcDbLine
 10
24.4694080454
 20
-20.6060693478
 30
0.0
 11
23.0125094593
 21
-19.2358760581
 31
0.0
  0
LINE
  5
1E2
330
1F
100
AcDbEntity
  8
0
  6
Continuous
 62
     7
370
    15
100
AcDbLine
 10
23.4678804014
 20
-23.1306382634
 30
0.0
 11
24.5127669926
 21
-22.0196177235
 31
0.0
  0
LINE
  5
1E3
330
1F
100
AcDbEntity
  8
0
  6
Continuous
 62
     7
370
    15
100
AcDbLine
 10
20.5974421764
 20
-21.8038000597
 30
0.0
 11
22.0543407625
 21
-23.1739933494
 31
0.0
  0
LINE
  5
1E4
330
1F
100
AcDbEntity
  8
0
  6
Continuous
 62
     7
370
    15
100
AcDbLine
 10
18.3027068443
 20
-26.2399725222
 30
0.0
 11
17.2500797319
 21
-24.5393930739
 31
0.0
  0
LINE
  5
1E5
330
1F
100
AcDbEntity
  8
0
  6
Continuous
 62
     7
370
    15
100
AcDbLine
 10
16.6819021347
 20
-28.4193009236
 30
0.0
 11
17.9787373916
 21
-27.6165765269
 31
0.0
  0
LINE
  5
1E6
330
1F
100
AcDbEntity
  8
0
  6
Continuous
 62
     7
370
    15
100
AcDbLine
 10
14.2526784573
 20
-26.3947460318
 30
0.0
 11
15.3053055697
 21
-28.0953254801
 31
0.0
  0
LINE
  5
1E7
330
1F
100
AcDbEntity
  8
0
  6
Continuous
 62
     7
370
    15
100
AcDbLine
 10
10.8879736753
 20
-30.0858314072
 30
0.0
 11
10.3113528348
 21
-28.1707574794
 31
0.0
  0
LINE
  5
1E8
330
1F
100
AcDbEntity
  8
0
  6
Continuous
 62
     7
370
    15
100
AcDbLine
 10
8.7583470626
 20
-31.7714016655
 30
0.0
 11
10.2187538056
 21
-31.331677753
 31
0.0
  0
LINE
  5
1E9
330
1F
100
AcDbEntity
  8
0
  6
Continuous
 62
     7
370
    15
100
AcDbLine
 10
6.935885512
 20
-29.1871001556
 30
0.0
 11
7.5125063524
 21
-31.1021740835
 31
0.0
  0
LINE
  5
1EA
330
1F
100
AcDbEntity
  8
0
  6
Continuous
 62
     7
370
    15
100
AcDbLine
 10
2.7305103505
 20
-31.8815570754
 30
0.0
 11
2.6691915393
 21
-29.8824977914
 31
0.0
  0
LINE
  5
1EB
330
1F
100
AcDbEntity
  8
0
  6
Continuous
 62
     7
370
    15
100
AcDbLine
 10
0.237192369
 20
-32.958500363
 30
0.0
 11
1.7616462919
 21
-32.9117433927
 31
0.0
  0
LINE
  5
1EC
330
1F
100
AcDbEntity
  8
0
  6
Continuous
 62
     7
370
    15
100
AcDbLine
 10
-0.8543093119
 20
-29.9905681123
 30
0.0
 11
-0.7929905007
 21
-31.9896273963
 31
0.0
  0
LINE
  5
1ED
330
1F
100
AcDbEntity
  8
0
  6
Continuous
 62
     7
370
    15
100
AcDbLine
 10
-5.6137654853
 20
-31.5047737902
 30
0.0
 11
-5.1556034916
 21
-29.5579617366
 31
0.0
  0
LINE
  5
1EE
330
1F
100
AcDbEntity
  8
0
  6
Continuous
 62
     7
370
    15
100
AcDbLine
 10
-8.3008593356
 20
-31.8996982017
 30
0.0
 11
-6.8162472483
 21
-32.2490945838
 31
0.0
  0
LINE
  5
1EF
330
1F
100
AcDbEntity
  8
0
  6
Continuous
 62
     7
370
    15
100
AcDbLine
 10
-8.5870171111
 20
-28.7503948883
 30
0.0
 11
-9.0451791048
 21
-30.6972069418
 31
0.0
  0
LINE
  5
1F0
330
1F
100
AcDbEntity
  8
0
  6
Continuous
 62
     7
370
    15
100
AcDbLine
 10
-13.5762052235
 20
-28.9811587096
 30
0.0
 11
-12.6297854076
 21
-27.2192659107
 31
0.0
  0
LINE
  5
1F1
330
1F
100
AcDbEntity
  8
0
  6
Continuous
 62
     7
370
    15
100
AcDbLine
 10
-16.2739539373
 20
-28.6671507991
 30
0.0
 11
-14.9303575459
 21
-29.3888897477
 31
0.0
  0
LINE
  5
1F2
330
1F
100
AcDbEntity
  8
0
  6
Continuous
 62
     7
370
    15
100
AcDbLine
 10
-15.7352666278
 20
-25.5510962394
 30
0.0
 11
-16.6816864438
 21
-27.3129890383
 31
0.0
  0
LINE
  5
1F3
330
1F
100
AcDbEntity
  8
0
  6
Continuous
 62
     7
370
    15
100
AcDbLine
 10
-20.6141817545
 20
-24.4826920311
 30
0.0
 11
-19.2440010628
 21
-23.0257885695
 31
0.0
  0
LINE
  5
1F4
330
1F
100
AcDbEntity
  8
0
  6
Continuous
 62
     7
370
    15
100
AcDbLine
 10
-23.1387382152
 20
-23.4811509187
 30
0.0
 11
-22.0277213934
 21
-24.5260471171
 31
0.0
  0
LINE
  5
1F5
330
1F
100
AcDbEntity
  8
0
  6
Continuous
 62
     7
370
    15
100
AcDbLine
 10
-21.8119164707
 20
-20.6106990814
 30
0.0
 11
-23.1820971624
 21
-22.067602543
 31
0.0
  0
LINE
  5
1F6
330
1F
100
AcDbEntity
  8
0
  6
Continuous
 62
     7
370
    15
100
AcDbLine
 10
-26.2480686085
 20
-18.3159368247
 30
0.0
 11
-24.5475025908
 21
-17.2633082635
 31
0.0
  0
LINE
  5
1F7
330
1F
100
AcDbEntity
  8
0
  6
Continuous
 62
     7
370
    15
100
AcDbLine
 10
-28.4273884653
 20
-16.6951158821
 30
0.0
 11
-27.6246651735
 21
-17.9919613811
 31
0.0
  0
LINE
  5
1F8
330
1F
100
AcDbEntity
  8
0
  6
Continuous
 62
     7
370
    15
100
AcDbLine
 10
-26.402852995
 20
-14.2658833162
 30
0.0
 11
-28.1034190127
 21
-15.3185118774
 31
0.0
  0
LINE
  5
1F9
330
1F
100
AcDbEntity
  8
0
  6
Continuous
 62
     7
370
    15
100
AcDbLine
 10
-30.0939257068
 20
-10.9011472666
 30
0.0
 11
-28.178865127
 21
-10.3245285028
 31
0.0
  0
LINE
  5
1FA
330
1F
100
AcDbEntity
  8
0
  6
Continuous
 62
     7
370
    15
100
AcDbLine
 10
-31.7794919131
 20
-8.7715027626
 30
0.0
 11
-31.339766417
 21
-10.2319196846
 31
0.0
  0
LINE
  5
1FB
330
1F
100
AcDbEntity
  8
0
  6
Continuous
 62
     7
370
    15
100
AcDbLine
 10
-29.1952114635
 20
-6.9490376529
 30
0.0
 11
-31.1102720434
 21
-7.5256564167
 31
0.0
  0
LINE
  5
1FC
330
1F
100
AcDbEntity
  8
0
  6
Continuous
 62
     7
370
    15
100
AcDbLine
 10
-31.8896642438
 20
-2.7436290117
 30
0.0
 11
-29.8906173155
 21
-2.6823156612
 31
0.0
  0
LINE
  5
1FD
330
1F
100
AcDbEntity
  8
0
  6
Continuous
 62
     7
370
    15
100
AcDbLine
 10
-32.966608248
 20
-0.2502926998
 30
0.0
 11
-32.9198471136
 21
-1.774756045
 31
0.0
  0
LINE
  5
1FE
330
1F
100
AcDbEntity
  8
0
  6
Continuous
 62
     7
370
    15
100
AcDbLine
 10
-29.9986972612
 20
0.8412069681
 30
0.0
 11
-31.9977441895
 21
0.7798936175
 31
0.0
  0
LINE
  5
1FF
330
1F
100
AcDbEntity
  8
0
  6
Continuous
 62
     7
370
    15
100
AcDbLine
 10
-31.5129076058
 20
5.6006965518
 30
0.0
 11
-29.5661060737
 21
5.1425260856
 31
0.0
  0
LINE
  5
200
330
1F
100
AcDbEntity
  8
0
  6
Continuous
 62
     7
370
    15
100
AcDbLine
 10
-31.9078374538
 20
8.2878079225
 30
0.0
 11
-32.257227375
 21
6.8031878116
 31
0.0
  0
LINE
  5
201
330
1F
100
AcDbEntity
  8
0
  6
Continuous
 62
     7
370
    15
100
AcDbLine
 10
-28.7585541587
 20
8.57395825
 30
0.0
 11
-30.7053556909
 21
9.0321287161
 31
0.0
  0
LINE
  5
202
330
1F
100
AcDbEntity
  8
0
  6
Continuous
 62
     7
370
    15
100
AcDbLine
 10
-28.989331135
 20
13.5631774264
 30
0.0
 11
-27.2274463062
 21
12.6167467036
 31
0.0
  0
LINE
  5
203
330
1F
100
AcDbEntity
  8
0
  6
Continuous
 62
     7
370
    15
100
AcDbLine
 10
-28.6753330104
 20
16.2609416566
 30
0.0
 11
-29.3970636415
 21
14.9173391873
 31
0.0
  0
LINE
  5
204
330
1F
100
AcDbEntity
  8
0
  6
Continuous
 62
     7
370
    15
100
AcDbLine
 10
-25.5592958592
 20
15.7222419718
 30
0.0
 11
-27.321180688
 21
16.6686726946
 31
0.0
  0
LINE
  5
205
330
1F
100
AcDbEntity
  8
0
  6
Continuous
 62
     7
370
    15
100
AcDbLine
 10
-24.4909123976
 20
20.6011836993
 30
0.0
 11
-23.0340138115
 21
19.2309904095
 31
0.0
  0
LINE
  5
206
330
1F
100
AcDbEntity
  8
0
  6
Continuous
 62
     7
370
    15
100
AcDbLine
 10
-23.4893847535
 20
23.1257526148
 30
0.0
 11
-24.5342713448
 21
22.0147320749
 31
0.0
  0
LINE
  5
207
330
1F
100
AcDbEntity
  8
0
  6
Continuous
 62
     7
370
    15
100
AcDbLine
 10
-20.6189465285
 20
21.7989144111
 30
0.0
 11
-22.0758451146
 21
23.1691077008
 31
0.0
  0
LINE
  5
208
330
1F
100
AcDbEntity
  8
0
  6
Continuous
 62
     7
370
    15
100
AcDbLine
 10
-18.3242111964
 20
26.2350868736
 30
0.0
 11
-17.271584084
 21
24.5345074253
 31
0.0
  0
LINE
  5
209
330
1F
100
AcDbEntity
  8
0
  6
Continuous
 62
     7
370
    15
100
AcDbLine
 10
-16.7034064868
 20
28.414415275
 30
0.0
 11
-18.0002417437
 21
27.6116908783
 31
0.0
  0
LINE
  5
20A
330
1F
100
AcDbEntity
  8
0
  6
Continuous
 62
     7
370
    15
100
AcDbLine
 10
-14.2741828094
 20
26.3898603832
 30
0.0
 11
-15.3268099218
 21
28.0904398315
 31
0.0
  0
LINE
  5
20B
330
1F
100
AcDbEntity
  8
0
  6
Continuous
 62
     7
370
    15
100
AcDbLine
 10
-10.9094780274
 20
30.0809457586
 30
0.0
 11
-10.3328571869
 21
28.1658718308
 31
0.0
  0
LINE
  5
20C
330
1F
100
AcDbEntity
  8
0
  6
Continuous
 62
     7
370
    15
100
AcDbLine
 10
-8.7798514147
 20
31.7665160169
 30
0.0
 11
-10.2402581577
 21
31.3267921044
 31
0.0
  0
LINE
  5
20D
330
1F
100
AcDbEntity
  8
0
  6
Continuous
 62
     7
370
    15
100
AcDbLine
 10
-6.9573898641
 20
29.182214507
 30
0.0
 11
-7.5340107046
 21
31.0972884349
 31
0.0
  0
LINE
  5
20E
330
1F
100
AcDbEntity
  8
0
  6
Continuous
 62
     7
370
    15
100
AcDbLine
 10
-2.7520147026
 20
31.8766714268
 30
0.0
 11
-2.6906958914
 21
29.8776121428
 31
0.0
  0
LINE
  5
20F
330
1F
100
AcDbEntity
  8
0
  6
Continuous
 62
     7
370
    15
100
AcDbLine
 10
-0.2586967211
 20
32.9536147144
 30
0.0
 11
-1.7831506441
 21
32.9068577441
 31
0.0
  0
LINE
  5
210
330
1F
100
AcDbEntity
  8
0
  6
Continuous
 62
     7
370
    15
100
AcDbLine
 10
0.8328049598
 20
29.9856824637
 30
0.0
 11
0.7714861486
 21
31.9847417477
 31
0.0
  0
LINE
  5
211
330
1F
100
AcDbEntity
  8
0
  6
Continuous
 62
     7
370
    15
100
AcDbLine
 10
5.5922611332
 20
31.4998881416
 30
0.0
 11
5.1340991395
 21
29.553076088
 31
0.0
  0
LINE
  5
212
330
1F
100
AcDbEntity
  8
0
  6
Continuous
 62
     7
370
    15
100
AcDbLine
 10
8.2793549835
 20
31.8948125531
 30
0.0
 11
6.7947428961
 21
32.2442089352
 31
0.0
  0
LINE
  5
213
330
1F
100
AcDbEntity
  8
0
  6
Continuous
 62
     7
370
    15
100
AcDbLine
 10
8.5655127589
 20
28.7455092397
 30
0.0
 11
9.0236747527
 21
30.6923212932
 31
0.0
  0
LINE
  5
214
330
1F
100
AcDbEntity
  8
0
  6
Continuous
 62
     7
370
    15
100
AcDbLine
 10
13.5547008714
 20
28.976273061
 30
0.0
 11
12.6082810555
 21
27.2143802622
 31
0.0
  0
LINE
  5
215
330
1F
100
AcDbEntity
  8
0
  6
Continuous
 62
     7
370
    15
100
AcDbLine
 10
16.2524495852
 20
28.6622651505
 30
0.0
 11
14.9088531938
 21
29.3840040991
 31
0.0
  0
LINE
  5
216
330
1F
100
AcDbEntity
  8
0
  6
Continuous
 62
     7
370
    15
100
AcDbLine
 10
15.7137622757
 20
25.5462105908
 30
0.0
 11
16.6601820916
 21
27.3081033897
 31
0.0
  0
LINE
  5
217
330
1F
100
AcDbEntity
  8
0
  6
Continuous
 62
     7
370
    15
100
AcDbLine
 10
20.5926774024
 20
24.4778063825
 30
0.0
 11
19.2224967107
 21
23.0209029209
 31
0.0
  0
LINE
  5
218
330
1F
100
AcDbEntity
  8
0
  6
Continuous
 62
     7
370
    15
100
AcDbLine
 10
23.1172338631
 20
23.4762652701
 30
0.0
 11
22.0062170413
 21
24.5211614685
 31
0.0
  0
LINE
  5
219
330
1F
100
AcDbEntity
  8
0
  6
Continuous
 62
     7
370
    15
100
AcDbLine
 10
21.7904121186
 20
20.6058134328
 30
0.0
 11
23.1605928103
 21
22.0627168944
 31
0.0
  0
LINE
  5
21A
330
1F
100
AcDbEntity
  8
0
  6
Continuous
 62
     7
370
    15
100
AcDbLine
 10
26.2265642564
 20
18.3110511761
 30
0.0
 11
24.5259982387
 21
17.2584226149
 31
0.0
  0
LINE
  5
21B
330
1F
100
AcDbEntity
  8
0
  6
Continuous
 62
     7
370
    15
100
AcDbLine
 10
28.4058841132
 20
16.6902302335
 30
0.0
 11
27.6031608214
 21
17.9870757325
 31
0.0
  0
LINE
  5
21C
330
1F
100
AcDbEntity
  8
0
  6
Continuous
 62
     7
370
    15
100
AcDbLine
 10
26.3813486429
 20
14.2609976676
 30
0.0
 11
28.0819146606
 21
15.3136262288
 31
0.0
  0
LINE
  5
21D
330
1F
100
AcDbEntity
  8
0
  6
Continuous
 62
     7
370
    15
100
AcDbLine
 10
30.0724213547
 20
10.896261618
 30
0.0
 11
28.1573607749
 21
10.3196428542
 31
0.0
  0
LINE
  5
21E
330
1F
100
AcDbEntity
  8
0
  6
Continuous
 62
     7
370
    15
100
AcDbLine
 10
31.7579875609
 20
8.766617114
 30
0.0
 11
31.3182620648
 21
10.227034036
 31
0.0
  0
LINE
  5
21F
330
1F
100
AcDbEntity
  8
0
  6
Continuous
 62
     7
370
    15
100
AcDbLine
 10
29.1737071114
 20
6.9441520043
 30
0.0
 11
31.0887676912
 21
7.5207707681
 31
0.0
  0
LINE
  5
220
330
1F
100
AcDbEntity
  8
0
  6
Continuous
 62
     7
370
    15
100
AcDbLine
 10
31.8681598917
 20
2.7387433631
 30
0.0
 11
29.8691129634
 21
2.6774300126
 31
0.0
  0
LINE
  5
221
330
1F
100
AcDbEntity
  8
0
  6
Continuous
 62
     7
370
    15
100
AcDbLine
 10
32.9451038959
 20
0.2454070512
 30
0.0
 11
32.8983427614
 21
1.7698703964
 31
0.0
  0
LINE
  5
222
330
1F
100
AcDbEntity
  8
0
  6
Continuous
 62
     7
370
    15
100
AcDbLine
 10
29.9771929091
 20
-0.8460926167
 30
0.0
 11
31.9762398374
 21
-0.7847792661
 31
0.0
  0
LINE
  5
223
330
1F
100
AcDbEntity
  8
0
  6
Continuous
 62
     7
370
    15
100
AcDbLine
 10
31.4914032537
 20
-5.6055822004
 30
0.0
 11
29.5446017215
 21
-5.1474117342
 31
0.0
  0
LINE
  5
224
330
1F
100
AcDbEntity
  8
0
  6
Continuous
 62
     7
370
    15
100
AcDbLine
 10
31.8863331017
 20
-8.2926935711
 30
0.0
 11
32.2357230229
 21
-6.8080734602
 31
0.0
  0
LINE
  5
225
330
1F
100
AcDbEntity
  8
0
  6
Continuous
 62
     7
370
    15
100
AcDbLine
 10
28.7370498066
 20
-8.5788438986
 30
0.0
 11
30.6838513388
 21
-9.0370143647
 31
0.0
  0
LINE
  5
226
330
1F
100
AcDbEntity
  8
0
  6
Continuous
 62
     7
370
    15
100
AcDbLine
 10
31.3290142409
 20
10.2294768603
 30
0.0
 11
31.3182620648
 21
10.227034036
 31
0.0
  0
LINE
  5
227
330
1F
100
AcDbEntity
  8
0
  6
Continuous
 62
     7
370
    15
100
AcDbLine
 10
31.768739737
 20
8.7690599383
 30
0.0
 11
31.3290142409
 21
10.2294768603
 31
0.0
  0
LINE
  5
228
330
1F
100
AcDbEntity
  8
0
  6
Continuous
 62
     7
370
    15
100
AcDbLine
 10
31.768739737
 20
8.7690599383
 30
0.0
 11
31.7579875609
 21
8.766617114
 31
0.0
  0
LINE
  5
229
330
1F
100
AcDbEntity
  8
0
  6
Continuous
 62
     7
370
    15
100
AcDbLine
 10
31.0995198673
 20
7.5232135924
 30
0.0
 11
31.0887676912
 21
7.5207707681
 31
0.0
  0
LINE
  5
22A
330
1F
100
AcDbEntity
  8
0
  6
Continuous
 62
     7
370
    15
100
AcDbLine
 10
31.8789120678
 20
2.7411861874
 30
0.0
 11
31.8681598917
 21
2.7387433631
 31
0.0
  0
LINE
  5
22B
330
1F
100
AcDbEntity
  8
0
  6
Continuous
 62
     7
370
    15
100
AcDbLine
 10
32.9090949375
 20
1.7723132207
 30
0.0
 11
32.8983427614
 21
1.7698703964
 31
0.0
  0
LINE
  5
22C
330
1F
100
AcDbEntity
  8
0
  6
Continuous
 62
     7
370
    15
100
AcDbLine
 10
32.955856072
 20
0.2478498755
 30
0.0
 11
32.9090949375
 21
1.7723132207
 31
0.0
  0
LINE
  5
22D
330
1F
100
AcDbEntity
  8
0
  6
Continuous
 62
     7
370
    15
100
AcDbLine
 10
32.955856072
 20
0.2478498755
 30
0.0
 11
32.9451038959
 21
0.2454070512
 31
0.0
  0
LINE
  5
22E
330
1F
100
AcDbEntity
  8
0
  6
Continuous
 62
     7
370
    15
100
AcDbLine
 10
29.1844592875
 20
6.9465948286
 30
0.0
 11
31.0995198673
 21
7.5232135924
 31
0.0
  0
LINE
  5
22F
330
1F
100
AcDbEntity
  8
0
  6
Continuous
 62
     7
370
    15
100
AcDbLine
 10
29.1844592875
 20
6.9465948286
 30
0.0
 11
29.1737071114
 21
6.9441520043
 31
0.0
  0
LINE
  5
230
330
1F
100
AcDbEntity
  8
0
  6
Continuous
 62
     7
370
    15
100
AcDbLine
 10
29.8798651395
 20
2.6798728369
 30
0.0
 11
29.8691129634
 21
2.6774300126
 31
0.0
  0
LINE
  5
231
330
1F
100
AcDbEntity
  8
0
  6
Continuous
 62
     7
370
    15
100
AcDbLine
 10
31.8789120678
 20
2.7411861874
 30
0.0
 11
29.8798651395
 21
2.6798728369
 31
0.0
  0
LINE
  5
232
330
1F
100
AcDbEntity
  8
0
  6
Continuous
 62
     7
370
    15
100
AcDbLine
 10
27.6139129974
 20
17.9895185568
 30
0.0
 11
27.6031608214
 21
17.9870757325
 31
0.0
  0
LINE
  5
233
330
1F
100
AcDbEntity
  8
0
  6
Continuous
 62
     7
370
    15
100
AcDbLine
 10
28.4166362893
 20
16.6926730578
 30
0.0
 11
27.6139129974
 21
17.9895185568
 31
0.0
  0
LINE
  5
234
330
1F
100
AcDbEntity
  8
0
  6
Continuous
 62
     7
370
    15
100
AcDbLine
 10
28.4166362893
 20
16.6926730578
 30
0.0
 11
28.4058841132
 21
16.6902302335
 31
0.0
  0
LINE
  5
235
330
1F
100
AcDbEntity
  8
0
  6
Continuous
 62
     7
370
    15
100
AcDbLine
 10
28.0926668366
 20
15.3160690531
 30
0.0
 11
28.0819146606
 21
15.3136262288
 31
0.0
  0
LINE
  5
236
330
1F
100
AcDbEntity
  8
0
  6
Continuous
 62
     7
370
    15
100
AcDbLine
 10
26.392100819
 20
14.2634404919
 30
0.0
 11
28.0926668366
 21
15.3160690531
 31
0.0
  0
LINE
  5
237
330
1F
100
AcDbEntity
  8
0
  6
Continuous
 62
     7
370
    15
100
AcDbLine
 10
26.392100819
 20
14.2634404919
 30
0.0
 11
26.3813486429
 21
14.2609976676
 31
0.0
  0
LINE
  5
238
330
1F
100
AcDbEntity
  8
0
  6
Continuous
 62
     7
370
    15
100
AcDbLine
 10
31.5021554297
 20
-5.6031393761
 30
0.0
 11
31.4914032537
 21
-5.6055822004
 31
0.0
  0
LINE
  5
239
330
1F
100
AcDbEntity
  8
0
  6
Continuous
 62
     7
370
    15
100
AcDbLine
 10
32.246475199
 20
-6.8056306359
 30
0.0
 11
32.2357230229
 21
-6.8080734602
 31
0.0
  0
LINE
  5
23A
330
1F
100
AcDbEntity
  8
0
  6
Continuous
 62
     7
370
    15
100
AcDbLine
 10
31.8970852778
 20
-8.2902507468
 30
0.0
 11
32.246475199
 21
-6.8056306359
 31
0.0
  0
LINE
  5
23B
330
1F
100
AcDbEntity
  8
0
  6
Continuous
 62
     7
370
    15
100
AcDbLine
 10
31.8970852778
 20
-8.2902507468
 30
0.0
 11
31.8863331017
 21
-8.2926935711
 31
0.0
  0
LINE
  5
23C
330
1F
100
AcDbEntity
  8
0
  6
Continuous
 62
     7
370
    15
100
AcDbLine
 10
29.5553538976
 20
-5.1449689099
 30
0.0
 11
29.5446017215
 21
-5.1474117342
 31
0.0
  0
LINE
  5
23D
330
1F
100
AcDbEntity
  8
0
  6
Continuous
 62
     7
370
    15
100
AcDbLine
 10
31.5021554297
 20
-5.6031393761
 30
0.0
 11
29.5553538976
 21
-5.1449689099
 31
0.0
  0
LINE
  5
23E
330
1F
100
AcDbEntity
  8
0
  6
Continuous
 62
     7
370
    15
100
AcDbLine
 10
21.8011642946
 20
20.6082562571
 30
0.0
 11
21.7904121186
 21
20.6058134328
 31
0.0
  0
LINE
  5
23F
330
1F
100
AcDbEntity
  8
0
  6
Continuous
 62
     7
370
    15
100
AcDbLine
 10
23.1279860391
 20
23.4787080944
 30
0.0
 11
23.1172338631
 21
23.4762652701
 31
0.0
  0
LINE
  5
240
330
1F
100
AcDbEntity
  8
0
  6
Continuous
 62
     7
370
    15
100
AcDbLine
 10
23.1713449863
 20
22.0651597187
 30
0.0
 11
23.1605928103
 21
22.0627168944
 31
0.0
  0
LINE
  5
241
330
1F
100
AcDbEntity
  8
0
  6
Continuous
 62
     7
370
    15
100
AcDbLine
 10
22.0169692173
 20
24.5236042928
 30
0.0
 11
22.0062170413
 21
24.5211614685
 31
0.0
  0
LINE
  5
242
330
1F
100
AcDbEntity
  8
0
  6
Continuous
 62
     7
370
    15
100
AcDbLine
 10
23.1279860391
 20
23.4787080944
 30
0.0
 11
22.0169692173
 21
24.5236042928
 31
0.0
  0
LINE
  5
243
330
1F
100
AcDbEntity
  8
0
  6
Continuous
 62
     7
370
    15
100
AcDbLine
 10
21.8011642946
 20
20.6082562571
 30
0.0
 11
23.1713449863
 21
22.0651597187
 31
0.0
  0
LINE
  5
244
330
1F
100
AcDbEntity
  8
0
  6
Continuous
 62
     7
370
    15
100
AcDbLine
 10
27.2166941301
 20
-12.6191895279
 30
0.0
 11
27.2059419541
 21
-12.6216323522
 31
0.0
  0
LINE
  5
245
330
1F
100
AcDbEntity
  8
0
  6
Continuous
 62
     7
370
    15
100
AcDbLine
 10
28.978578959
 20
-13.5656202507
 30
0.0
 11
28.9678267829
 21
-13.568063075
 31
0.0
  0
LINE
  5
246
330
1F
100
AcDbEntity
  8
0
  6
Continuous
 62
     7
370
    15
100
AcDbLine
 10
29.3863114654
 20
-14.9197820116
 30
0.0
 11
29.3755592894
 21
-14.9222248359
 31
0.0
  0
LINE
  5
247
330
1F
100
AcDbEntity
  8
0
  6
Continuous
 62
     7
370
    15
100
AcDbLine
 10
28.978578959
 20
-13.5656202507
 30
0.0
 11
27.2166941301
 21
-12.6191895279
 31
0.0
  0
LINE
  5
248
330
1F
100
AcDbEntity
  8
0
  6
Continuous
 62
     7
370
    15
100
AcDbLine
 10
28.6645808343
 20
-16.2633844809
 30
0.0
 11
29.3863114654
 21
-14.9197820116
 31
0.0
  0
LINE
  5
249
330
1F
100
AcDbEntity
  8
0
  6
Continuous
 62
     7
370
    15
100
AcDbLine
 10
28.6645808343
 20
-16.2633844809
 30
0.0
 11
28.6538286583
 21
-16.2658273052
 31
0.0
  0
LINE
  5
24A
330
1F
100
AcDbEntity
  8
0
  6
Continuous
 62
     7
370
    15
100
AcDbLine
 10
15.7245144518
 20
25.5486534151
 30
0.0
 11
15.7137622757
 21
25.5462105908
 31
0.0
  0
LINE
  5
24B
330
1F
100
AcDbEntity
  8
0
  6
Continuous
 62
     7
370
    15
100
AcDbLine
 10
16.2632017612
 20
28.6647079748
 30
0.0
 11
16.2524495852
 21
28.6622651505
 31
0.0
  0
LINE
  5
24C
330
1F
100
AcDbEntity
  8
0
  6
Continuous
 62
     7
370
    15
100
AcDbLine
 10
16.6709342677
 20
27.310546214
 30
0.0
 11
16.6601820916
 21
27.3081033897
 31
0.0
  0
LINE
  5
24D
330
1F
100
AcDbEntity
  8
0
  6
Continuous
 62
     7
370
    15
100
AcDbLine
 10
14.9196053698
 20
29.3864469234
 30
0.0
 11
14.9088531938
 21
29.3840040991
 31
0.0
  0
LINE
  5
24E
330
1F
100
AcDbEntity
  8
0
  6
Continuous
 62
     7
370
    15
100
AcDbLine
 10
16.2632017612
 20
28.6647079748
 30
0.0
 11
14.9196053698
 21
29.3864469234
 31
0.0
  0
LINE
  5
24F
330
1F
100
AcDbEntity
  8
0
  6
Continuous
 62
     7
370
    15
100
AcDbLine
 10
15.7245144518
 20
25.5486534151
 30
0.0
 11
16.6709342677
 21
27.310546214
 31
0.0
  0
LINE
  5
250
330
1F
100
AcDbEntity
  8
0
  6
Continuous
 62
     7
370
    15
100
AcDbLine
 10
23.0232616354
 20
-19.2334332338
 30
0.0
 11
23.0125094593
 21
-19.2358760581
 31
0.0
  0
LINE
  5
251
330
1F
100
AcDbEntity
  8
0
  6
Continuous
 62
     7
370
    15
100
AcDbLine
 10
24.4801602215
 20
-20.6036265235
 30
0.0
 11
24.4694080454
 21
-20.6060693478
 31
0.0
  0
LINE
  5
252
330
1F
100
AcDbEntity
  8
0
  6
Continuous
 62
     7
370
    15
100
AcDbLine
 10
24.5235191687
 20
-22.0171748992
 30
0.0
 11
24.5127669926
 21
-22.0196177235
 31
0.0
  0
LINE
  5
253
330
1F
100
AcDbEntity
  8
0
  6
Continuous
 62
     7
370
    15
100
AcDbLine
 10
24.4801602215
 20
-20.6036265235
 30
0.0
 11
23.0232616354
 21
-19.2334332338
 31
0.0
  0
LINE
  5
254
330
1F
100
AcDbEntity
  8
0
  6
Continuous
 62
     7
370
    15
100
AcDbLine
 10
23.4786325775
 20
-23.1281954391
 30
0.0
 11
24.5235191687
 21
-22.0171748992
 31
0.0
  0
LINE
  5
255
330
1F
100
AcDbEntity
  8
0
  6
Continuous
 62
     7
370
    15
100
AcDbLine
 10
23.4786325775
 20
-23.1281954391
 30
0.0
 11
23.4678804014
 21
-23.1306382634
 31
0.0
  0
LINE
  5
256
330
1F
100
AcDbEntity
  8
0
  6
Continuous
 62
     7
370
    15
100
AcDbLine
 10
8.576264935
 20
28.747952064
 30
0.0
 11
8.5655127589
 21
28.7455092397
 31
0.0
  0
LINE
  5
257
330
1F
100
AcDbEntity
  8
0
  6
Continuous
 62
     7
370
    15
100
AcDbLine
 10
8.2901071595
 20
31.8972553774
 30
0.0
 11
8.2793549835
 21
31.8948125531
 31
0.0
  0
LINE
  5
258
330
1F
100
AcDbEntity
  8
0
  6
Continuous
 62
     7
370
    15
100
AcDbLine
 10
9.0344269287
 20
30.6947641175
 30
0.0
 11
9.0236747527
 21
30.6923212932
 31
0.0
  0
LINE
  5
259
330
1F
100
AcDbEntity
  8
0
  6
Continuous
 62
     7
370
    15
100
AcDbLine
 10
8.576264935
 20
28.747952064
 30
0.0
 11
9.0344269287
 21
30.6947641175
 31
0.0
  0
LINE
  5
25A
330
1F
100
AcDbEntity
  8
0
  6
Continuous
 62
     7
370
    15
100
AcDbLine
 10
17.260831908
 20
-24.5369502496
 30
0.0
 11
17.2500797319
 21
-24.5393930739
 31
0.0
  0
LINE
  5
25B
330
1F
100
AcDbEntity
  8
0
  6
Continuous
 62
     7
370
    15
100
AcDbLine
 10
6.8054950722
 20
32.2466517595
 30
0.0
 11
6.7947428961
 21
32.2442089352
 31
0.0
  0
LINE
  5
25C
330
1F
100
AcDbEntity
  8
0
  6
Continuous
 62
     7
370
    15
100
AcDbLine
 10
8.2901071595
 20
31.8972553774
 30
0.0
 11
6.8054950722
 21
32.2466517595
 31
0.0
  0
LINE
  5
25D
330
1F
100
AcDbEntity
  8
0
  6
Continuous
 62
     7
370
    15
100
AcDbLine
 10
18.3134590203
 20
-26.2375296979
 30
0.0
 11
17.260831908
 21
-24.5369502496
 31
0.0
  0
LINE
  5
25E
330
1F
100
AcDbEntity
  8
0
  6
Continuous
 62
     7
370
    15
100
AcDbLine
 10
18.3134590203
 20
-26.2375296979
 30
0.0
 11
18.3027068443
 21
-26.2399725222
 31
0.0
  0
LINE
  5
25F
330
1F
100
AcDbEntity
  8
0
  6
Continuous
 62
     7
370
    15
100
AcDbLine
 10
17.9894895677
 20
-27.6141337026
 30
0.0
 11
17.9787373916
 21
-27.6165765269
 31
0.0
  0
LINE
  5
260
330
1F
100
AcDbEntity
  8
0
  6
Continuous
 62
     7
370
    15
100
AcDbLine
 10
0.8435571359
 20
29.988125288
 30
0.0
 11
0.8328049598
 21
29.9856824637
 31
0.0
  0
LINE
  5
261
330
1F
100
AcDbEntity
  8
0
  6
Continuous
 62
     7
370
    15
100
AcDbLine
 10
16.6926543107
 20
-28.4168580993
 30
0.0
 11
17.9894895677
 21
-27.6141337026
 31
0.0
  0
LINE
  5
262
330
1F
100
AcDbEntity
  8
0
  6
Continuous
 62
     7
370
    15
100
AcDbLine
 10
16.6926543107
 20
-28.4168580993
 30
0.0
 11
16.6819021347
 21
-28.4193009236
 31
0.0
  0
LINE
  5
263
330
1F
100
AcDbEntity
  8
0
  6
Continuous
 62
     7
370
    15
100
AcDbLine
 10
10.3221050109
 20
-28.1683146551
 30
0.0
 11
10.3113528348
 21
-28.1707574794
 31
0.0
  0
LINE
  5
264
330
1F
100
AcDbEntity
  8
0
  6
Continuous
 62
     7
370
    15
100
AcDbLine
 10
-0.2479445451
 20
32.9560575387
 30
0.0
 11
-0.2586967211
 21
32.9536147144
 31
0.0
  0
LINE
  5
265
330
1F
100
AcDbEntity
  8
0
  6
Continuous
 62
     7
370
    15
100
AcDbLine
 10
0.7822383247
 20
31.987184572
 30
0.0
 11
0.7714861486
 21
31.9847417477
 31
0.0
  0
LINE
  5
266
330
1F
100
AcDbEntity
  8
0
  6
Continuous
 62
     7
370
    15
100
AcDbLine
 10
0.8435571359
 20
29.988125288
 30
0.0
 11
0.7822383247
 21
31.987184572
 31
0.0
  0
LINE
  5
267
330
1F
100
AcDbEntity
  8
0
  6
Continuous
 62
     7
370
    15
100
AcDbLine
 10
-1.772398468
 20
32.9093005684
 30
0.0
 11
-1.7831506441
 21
32.9068577441
 31
0.0
  0
LINE
  5
268
330
1F
100
AcDbEntity
  8
0
  6
Continuous
 62
     7
370
    15
100
AcDbLine
 10
-0.2479445451
 20
32.9560575387
 30
0.0
 11
-1.772398468
 21
32.9093005684
 31
0.0
  0
LINE
  5
269
330
1F
100
AcDbEntity
  8
0
  6
Continuous
 62
     7
370
    15
100
AcDbLine
 10
-1.772398468
 20
32.9093005684
 30
0.0
 11
-1.9632866832
 21
32.8849204799
 31
0.0
  0
LINE
  5
26A
330
1F
100
AcDbEntity
  8
0
  6
Continuous
 62
     7
370
    15
100
AcDbLine
 10
10.8987258513
 20
-30.0833885829
 30
0.0
 11
10.3221050109
 21
-28.1683146551
 31
0.0
  0
LINE
  5
26B
330
1F
100
AcDbEntity
  8
0
  6
Continuous
 62
     7
370
    15
100
AcDbLine
 10
10.8987258513
 20
-30.0833885829
 30
0.0
 11
10.8879736753
 21
-30.0858314072
 31
0.0
  0
LINE
  5
26C
330
1F
100
AcDbEntity
  8
0
  6
Continuous
 62
     7
370
    15
100
AcDbLine
 10
10.2295059816
 20
-31.3292349287
 30
0.0
 11
10.2187538056
 21
-31.331677753
 31
0.0
  0
LINE
  5
26D
330
1F
100
AcDbEntity
  8
0
  6
Continuous
 62
     7
370
    15
100
AcDbLine
 10
8.7690992386
 20
-31.7689588412
 30
0.0
 11
10.2295059816
 21
-31.3292349287
 31
0.0
  0
LINE
  5
26E
330
1F
100
AcDbEntity
  8
0
  6
Continuous
 62
     7
370
    15
100
AcDbLine
 10
8.7690992386
 20
-31.7689588412
 30
0.0
 11
8.7583470626
 21
-31.7714016655
 31
0.0
  0
LINE
  5
26F
330
1F
100
AcDbEntity
  8
0
  6
Continuous
 62
     7
370
    15
100
AcDbLine
 10
8.7023364392
 20
-31.7865714308
 30
0.0
 11
8.7690992386
 21
-31.7689588412
 31
0.0
  0
LINE
  5
270
330
1F
100
AcDbEntity
  8
0
  6
Continuous
 62
     7
370
    15
100
AcDbLine
 10
6.6464286226
 20
-29.2544866057
 30
0.0
 11
6.946637688
 21
-29.1846573313
 31
0.0
  0
LINE
  5
271
330
1F
100
AcDbEntity
  8
0
  6
Continuous
 62
     7
370
    15
100
AcDbLine
 10
-7.5232585285
 20
31.0997312592
 30
0.0
 11
-7.5340107046
 21
31.0972884349
 31
0.0
  0
LINE
  5
272
330
1F
100
AcDbEntity
  8
0
  6
Continuous
 62
     7
370
    15
100
AcDbLine
 10
-6.9466698211
 20
29.1847640518
 30
0.0
 11
-7.5232585285
 21
31.0997312592
 31
0.0
  0
LINE
  5
273
330
1F
100
AcDbEntity
  8
0
  6
Continuous
 62
     7
370
    15
100
AcDbLine
 10
2.7412625266
 20
-31.8791142511
 30
0.0
 11
2.6799888815
 21
-29.8815274301
 31
0.0
  0
LINE
  5
274
330
1F
100
AcDbEntity
  8
0
  6
Continuous
 62
     7
370
    15
100
AcDbLine
 10
2.7412625266
 20
-31.8791142511
 30
0.0
 11
2.7305103505
 21
-31.8815570754
 31
0.0
  0
LINE
  5
275
330
1F
100
AcDbEntity
  8
0
  6
Continuous
 62
     7
370
    15
100
AcDbLine
 10
-15.3160577457
 20
28.0928826558
 30
0.0
 11
-15.3268099218
 21
28.0904398315
 31
0.0
  0
LINE
  5
276
330
1F
100
AcDbEntity
  8
0
  6
Continuous
 62
     7
370
    15
100
AcDbLine
 10
-14.2649918815
 20
26.3948254934
 30
0.0
 11
-15.3160577457
 21
28.0928826558
 31
0.0
  0
LINE
  5
277
330
1F
100
AcDbEntity
  8
0
  6
Continuous
 62
     7
370
    15
100
AcDbLine
 10
-5.6030133093
 20
-31.5023309659
 30
0.0
 11
-5.1458263632
 21
-29.5596620641
 31
0.0
  0
LINE
  5
278
330
1F
100
AcDbEntity
  8
0
  6
Continuous
 62
     7
370
    15
100
AcDbLine
 10
-5.6030133093
 20
-31.5023309659
 30
0.0
 11
-5.6137654853
 21
-31.5047737902
 31
0.0
  0
LINE
  5
279
330
1F
100
AcDbEntity
  8
0
  6
Continuous
 62
     7
370
    15
100
AcDbLine
 10
-22.0650929386
 20
23.1715505251
 30
0.0
 11
-22.0758451146
 21
23.1691077008
 31
0.0
  0
LINE
  5
27A
330
1F
100
AcDbEntity
  8
0
  6
Continuous
 62
     7
370
    15
100
AcDbLine
 10
-20.6122876927
 20
21.8052069661
 30
0.0
 11
-22.0650929386
 21
23.1715505251
 31
0.0
  0
LINE
  5
27B
330
1F
100
AcDbEntity
  8
0
  6
Continuous
 62
     7
370
    15
100
AcDbLine
 10
-13.5654530474
 20
-28.9787158853
 30
0.0
 11
-12.6222271744
 21
-27.2227690576
 31
0.0
  0
LINE
  5
27C
330
1F
100
AcDbEntity
  8
0
  6
Continuous
 62
     7
370
    15
100
AcDbLine
 10
-13.5654530474
 20
-28.9787158853
 30
0.0
 11
-13.5762052235
 21
-28.9811587096
 31
0.0
  0
LINE
  5
27D
330
1F
100
AcDbEntity
  8
0
  6
Continuous
 62
     7
370
    15
100
AcDbLine
 10
-27.3104285119
 20
16.6711155189
 30
0.0
 11
-27.321180688
 21
16.6686726946
 31
0.0
  0
LINE
  5
27E
330
1F
100
AcDbEntity
  8
0
  6
Continuous
 62
     7
370
    15
100
AcDbLine
 10
-25.5554936003
 20
15.7284180794
 30
0.0
 11
-27.3104285119
 21
16.6711155189
 31
0.0
  0
LINE
  5
27F
330
1F
100
AcDbEntity
  8
0
  6
Continuous
 62
     7
370
    15
100
AcDbLine
 10
-20.6034295784
 20
-24.4802492068
 30
0.0
 11
-19.2392658283
 21
-23.0297435167
 31
0.0
  0
LINE
  5
280
330
1F
100
AcDbEntity
  8
0
  6
Continuous
 62
     7
370
    15
100
AcDbLine
 10
-20.6034295784
 20
-24.4802492068
 30
0.0
 11
-20.6141817545
 21
-24.4826920311
 31
0.0
  0
LINE
  5
281
330
1F
100
AcDbEntity
  8
0
  6
Continuous
 62
     7
370
    15
100
AcDbLine
 10
-30.6946035148
 20
9.0345715404
 30
0.0
 11
-30.7053556909
 21
9.0321287161
 31
0.0
  0
LINE
  5
282
330
1F
100
AcDbEntity
  8
0
  6
Continuous
 62
     7
370
    15
100
AcDbLine
 10
-28.7571674457
 20
8.5786051914
 30
0.0
 11
-30.6946035148
 21
9.0345715404
 31
0.0
  0
LINE
  5
283
330
1F
100
AcDbEntity
  8
0
  6
Continuous
 62
     7
370
    15
100
AcDbLine
 10
-26.2373164324
 20
-18.3134940004
 30
0.0
 11
-24.5454379237
 21
-17.2662428959
 31
0.0
  0
LINE
  5
284
330
1F
100
AcDbEntity
  8
0
  6
Continuous
 62
     7
370
    15
100
AcDbLine
 10
-26.2373164324
 20
-18.3134940004
 30
0.0
 11
-26.2480686085
 21
-18.3159368247
 31
0.0
  0
LINE
  5
285
330
1F
100
AcDbEntity
  8
0
  6
Continuous
 62
     7
370
    15
100
AcDbLine
 10
-31.9869920134
 20
0.7823364418
 30
0.0
 11
-31.9977441895
 21
0.7798936175
 31
0.0
  0
LINE
  5
286
330
1F
100
AcDbEntity
  8
0
  6
Continuous
 62
     7
370
    15
100
AcDbLine
 10
-29.998637696
 20
0.8433218362
 30
0.0
 11
-31.9869920134
 21
0.7823364418
 31
0.0
  0
LINE
  5
287
330
1F
100
AcDbEntity
  8
0
  6
Continuous
 62
     7
370
    15
100
AcDbLine
 10
-30.0831735308
 20
-10.8987044423
 30
0.0
 11
-28.1786028685
 21
-10.32524416
 31
0.0
  0
LINE
  5
288
330
1F
100
AcDbEntity
  8
0
  6
Continuous
 62
     7
370
    15
100
AcDbLine
 10
-30.0831735308
 20
-10.8987044423
 30
0.0
 11
-30.0939257068
 21
-10.9011472666
 31
0.0
  0
LINE
  5
289
330
1F
100
AcDbEntity
  8
0
  6
Continuous
 62
     7
370
    15
100
AcDbLine
 10
-31.9869920134
 20
0.7823364418
 30
0.0
 11
-32.1778802286
 21
0.7579563534
 31
0.0
  0
LINE
  5
28A
330
1F
100
AcDbEntity
  8
0
  6
Continuous
 62
     7
370
    15
100
AcDbLine
 10
-30.1499363302
 20
-10.9163170319
 30
0.0
 11
-30.0831735308
 21
-10.8987044423
 31
0.0
  0
ARC
  5
28B
330
1F
100
AcDbEntity
  8
0
  6
Continuous
 62
     7
370
    15
100
AcDbCircle
 10
28.4946060749
 20
-14.4490120396
 30
0.0
 40
1.000004458328356
100
AcDbArc
 50
331.7570881923
 51
61.7565736234
  0
ARC
  5
28C
330
1F
100
AcDbEntity
  8
0
  6
Continuous
 62
     7
370
    15
100
AcDbCircle
 10
27.7728888089
 20
-15.7926227438
 30
0.0
 40
0.9999887874620351
100
AcDbArc
 50
241.7566269049
 51
331.7571414758
  0
ARC
  5
28D
330
1F
100
AcDbEntity
  8
0
  6
Continuous
 62
     7
370
    15
100
AcDbCircle
 10
-0.0108288178
 20
-0.0026347651
 30
0.0
 40
29.99986126735837
100
AcDbArc
 50
320.1252854689
 51
328.3888136665
  0
ARC
  5
28E
330
1F
100
AcDbEntity
  8
0
  6
Continuous
 62
     7
370
    15
100
AcDbCircle
 10
23.7843073929
 20
-21.3345231914
 30
0.0
 40
1.000003953168105
100
AcDbArc
 50
316.7571710009
 51
46.7566896065
  0
ARC
  5
28F
330
1F
100
AcDbEntity
  8
0
  6
Continuous
 62
     7
370
    15
100
AcDbCircle
 10
22.7394332211
 20
-22.4455519252
 30
0.0
 40
0.9999892926174228
100
AcDbArc
 50
226.756544096
 51
316.7570254918
  0
ARC
  5
290
330
1F
100
AcDbEntity
  8
0
  6
Continuous
 62
     7
370
    15
100
AcDbCircle
 10
-0.0107226074
 20
-0.0027337825
 30
0.0
 40
29.99971577496104
100
AcDbArc
 50
305.12523444
 51
313.3887893745
  0
ARC
  5
291
330
1F
100
AcDbEntity
  8
0
  6
Continuous
 62
     7
370
    15
100
AcDbCircle
 10
17.4524162806
 20
-26.7662888957
 30
0.0
 40
1.000001483859338
100
AcDbArc
 50
301.7571698208
 51
31.7568505895
  0
ARC
  5
292
330
1F
100
AcDbEntity
  8
0
  6
Continuous
 62
     7
370
    15
100
AcDbCircle
 10
16.1555906714
 20
-27.5690187543
 30
0.0
 40
0.9999917619070343
100
AcDbArc
 50
211.756545277
 51
301.7568645075
  0
ARC
  5
293
330
1F
100
AcDbEntity
  8
0
  6
Continuous
 62
     7
370
    15
100
AcDbCircle
 10
-0.010670796
 20
-0.0028149572
 30
0.0
 40
29.99961929371146
100
AcDbArc
 50
290.125146554
 51
298.3887192188
  0
ARC
  5
294
330
1F
100
AcDbEntity
  8
0
  6
Continuous
 62
     7
370
    15
100
AcDbCircle
 10
9.9304397898
 20
-30.3741442275
 30
0.0
 40
0.9999977120583926
100
AcDbArc
 50
286.7570849678
 51
16.7570134376
  0
ARC
  5
295
330
1F
100
AcDbEntity
  8
0
  6
Continuous
 62
     7
370
    15
100
AcDbCircle
 10
8.4700400808
 20
-30.8138682971
 30
0.0
 40
0.9999955336937509
100
AcDbArc
 50
196.7566301313
 51
286.756701659
  0
ARC
  5
296
330
1F
100
AcDbEntity
  8
0
  6
Continuous
 62
     7
370
    15
100
AcDbCircle
 10
-0.0106629754
 20
-0.0028351348
 30
0.0
 40
29.99959767550144
100
AcDbArc
 50
275.12504536
 51
283.3886219975
  0
ARC
  5
297
330
1F
100
AcDbEntity
  8
0
  6
Continuous
 62
     7
370
    15
100
AcDbCircle
 10
1.7309869187
 20
-31.9122198563
 30
0.0
 40
0.9999936484214915
100
AcDbArc
 50
271.7569391779
 51
1.757134516
  0
ARC
  5
298
330
1F
100
AcDbEntity
  8
0
  6
Continuous
 62
     7
370
    15
100
AcDbCircle
 10
0.2065390691
 20
-31.9589706886
 30
0.0
 40
0.9999995973355119
100
AcDbArc
 50
181.7567759216
 51
271.7565805815
  0
ARC
  5
299
330
1F
100
AcDbEntity
  8
0
  6
Continuous
 62
     7
370
    15
100
AcDbCircle
 10
-0.0106632192
 20
-0.0027761936
 30
0.0
 40
29.99965671286034
100
AcDbArc
 50
260.1249579731
 51
268.3885237614
  0
ARC
  5
29A
330
1F
100
AcDbEntity
  8
0
  6
Continuous
 62
     7
370
    15
100
AcDbCircle
 10
-6.5871641014
 20
-31.2756976065
 30
0.0
 40
0.9999903817950804
100
AcDbArc
 50
256.7567715151
 51
346.7571813814
  0
ARC
  5
29B
330
1F
100
AcDbEntity
  8
0
  6
Continuous
 62
     7
370
    15
100
AcDbCircle
 10
-8.0717692892
 20
-30.9262900249
 30
0.0
 40
1.000002863981062
100
AcDbArc
 50
166.7569435834
 51
256.7565337174
  0
ARC
  5
29C
330
1F
100
AcDbEntity
  8
0
  6
Continuous
 62
     7
370
    15
100
AcDbCircle
 10
-0.0106338882
 20
-0.0026560889
 30
0.0
 40
29.99978058690812
100
AcDbArc
 50
245.1249078087
 51
253.3884508327
  0
ARC
  5
29D
330
1F
100
AcDbEntity
  8
0
  6
Continuous
 62
     7
370
    15
100
AcDbCircle
 10
-14.4571450728
 20
-28.5079541482
 30
0.0
 40
0.9999887874620442
100
AcDbArc
 50
241.7566269049
 51
331.7571414758
  0
ARC
  5
29E
330
1F
100
AcDbEntity
  8
0
  6
Continuous
 62
     7
370
    15
100
AcDbCircle
 10
-15.8007332293
 20
-27.7862018345
 30
0.0
 40
1.000004458328343
100
AcDbArc
 50
151.7570881923
 51
241.7565736234
  0
ARC
  5
29F
330
1F
100
AcDbEntity
  8
0
  6
Continuous
 62
     7
370
    15
100
AcDbCircle
 10
-0.0105602343
 20
-0.002519465
 30
0.0
 40
29.999936105875
100
AcDbArc
 50
230.1249083081
 51
238.3884227528
  0
ARC
  5
2A0
330
1F
100
AcDbEntity
  8
0
  6
Continuous
 62
     7
370
    15
100
AcDbCircle
 10
-21.3426289348
 20
-23.7976056929
 30
0.0
 40
0.9999892926174256
100
AcDbArc
 50
226.756544096
 51
316.7570254918
  0
ARC
  5
2A1
330
1F
100
AcDbEntity
  8
0
  6
Continuous
 62
     7
370
    15
100
AcDbCircle
 10
-22.4536375627
 20
-22.7526970751
 30
0.0
 40
1.000003953168084
100
AcDbArc
 50
136.7571710009
 51
226.7566896065
  0
ARC
  5
2A2
330
1F
100
AcDbEntity
  8
0
  6
Continuous
 62
     7
370
    15
100
AcDbCircle
 10
-0.010461216
 20
-0.002413255
 30
0.0
 40
30.00008159863111
100
AcDbArc
 50
215.1249593374
 51
223.3884470454
  0
ARC
  5
2A3
330
1F
100
AcDbEntity
  8
0
  6
Continuous
 62
     7
370
    15
100
AcDbCircle
 10
-26.7743800717
 20
-17.4656546553
 30
0.0
 40
0.99999176190703
100
AcDbArc
 50
211.756545277
 51
301.7568645075
  0
ARC
  5
2A4
330
1F
100
AcDbEntity
  8
0
  6
Continuous
 62
     7
370
    15
100
AcDbCircle
 10
-27.5770979017
 20
-16.1687995086
 30
0.0
 40
1.000001483859366
100
AcDbArc
 50
121.7571698208
 51
211.7568505895
  0
ARC
  5
2A5
330
1F
100
AcDbEntity
  8
0
  6
Continuous
 62
     7
370
    15
100
AcDbCircle
 10
-0.0103800407
 20
-0.0023614436
 30
0.0
 40
30.00017808038254
100
AcDbArc
 50
200.125047223
 51
208.3885172012
  0
ARC
  5
2A6
330
1F
100
AcDbEntity
  8
0
  6
Continuous
 62
     7
370
    15
100
AcDbCircle
 10
-30.3822326886
 20
-9.9436138982
 30
0.0
 40
0.9999955336937222
100
AcDbArc
 50
196.7566301313
 51
286.756701659
  0
ARC
  5
2A7
330
1F
100
AcDbEntity
  8
0
  6
Continuous
 62
     7
370
    15
100
AcDbCircle
 10
-30.8219580276
 20
-8.4831899422
 30
0.0
 40
0.9999977120583848
100
AcDbArc
 50
106.7570849678
 51
196.7570134376
  0
ARC
  5
2A8
330
1F
100
AcDbEntity
  8
0
  6
Continuous
 62
     7
370
    15
100
AcDbCircle
 10
-0.0103598629
 20
-0.0023536231
 30
0.0
 40
30.00019969873057
100
AcDbArc
 50
185.1251484164
 51
193.3886144218
  0
ARC
  5
2A9
330
1F
100
AcDbEntity
  8
0
  6
Continuous
 62
     7
370
    15
100
AcDbCircle
 10
-31.9203175437
 20
-1.7440993374
 30
0.0
 40
0.9999995973355018
100
AcDbArc
 50
181.7567759216
 51
271.7565805815
  0
ARC
  5
2AA
330
1F
100
AcDbEntity
  8
0
  6
Continuous
 62
     7
370
    15
100
AcDbCircle
 10
-31.9670848162
 20
-0.2196299188
 30
0.0
 40
0.9999936484215081
100
AcDbArc
 50
91.7569391779
 51
181.757134516
  0
ARC
  5
2AB
330
1F
100
AcDbEntity
  8
0
  6
Continuous
 62
     7
370
    15
100
AcDbCircle
 10
-0.0104188045
 20
-0.002353867
 30
0.0
 40
30.0001406610133
100
AcDbArc
 50
170.1252358029
 51
178.3887126574
  0
ARC
  5
2AC
330
1F
100
AcDbEntity
  8
0
  6
Continuous
 62
     7
370
    15
100
AcDbCircle
 10
-31.2838175595
 20
6.5741047286
 30
0.0
 40
1.000002863981053
100
AcDbArc
 50
166.7569435834
 51
256.7565337174
  0
ARC
  5
2AD
330
1F
100
AcDbEntity
  8
0
  6
Continuous
 62
     7
370
    15
100
AcDbCircle
 10
-30.9344388378
 20
8.0587317388
 30
0.0
 40
0.9999903817950812
100
AcDbArc
 50
76.7567715151
 51
166.7571813814
  0
ARC
  5
2AE
330
1F
100
AcDbEntity
  8
0
  6
Continuous
 62
     7
370
    15
100
AcDbCircle
 10
-0.0105389098
 20
-0.0023245365
 30
0.0
 40
30.00001678646612
100
AcDbArc
 50
155.1252859677
 51
163.388785586
  0
ARC
  5
2AF
330
1F
100
AcDbEntity
  8
0
  6
Continuous
 62
     7
370
    15
100
AcDbCircle
 10
-28.516110427
 20
14.444126391
 30
0.0
 40
1.000004458328351
100
AcDbArc
 50
151.7570881923
 51
241.7565736234
  0
ARC
  5
2B0
330
1F
100
AcDbEntity
  8
0
  6
Continuous
 62
     7
370
    15
100
AcDbCircle
 10
-27.7943931611
 20
15.7877370952
 30
0.0
 40
0.9999887874620383
100
AcDbArc
 50
61.7566269049
 51
151.7571414758
  0
ARC
  5
2B1
330
1F
100
AcDbEntity
  8
0
  6
Continuous
 62
     7
370
    15
100
AcDbCircle
 10
-0.0106755343
 20
-0.0022508835
 30
0.0
 40
29.99986126735778
100
AcDbArc
 50
140.1252854689
 51
148.3888136665
  0
ARC
  5
2B2
330
1F
100
AcDbEntity
  8
0
  6
Continuous
 62
     7
370
    15
100
AcDbCircle
 10
-23.805811745
 20
21.3296375428
 30
0.0
 40
1.000003953168101
100
AcDbArc
 50
136.7571710009
 51
226.7566896065
  0
ARC
  5
2B3
330
1F
100
AcDbEntity
  8
0
  6
Continuous
 62
     7
370
    15
100
AcDbCircle
 10
-22.7609375732
 20
22.4406662766
 30
0.0
 40
0.9999892926174266
100
AcDbArc
 50
46.756544096
 51
136.7570254918
  0
ARC
  5
2B4
330
1F
100
AcDbEntity
  8
0
  6
Continuous
 62
     7
370
    15
100
AcDbCircle
 10
-0.0107817447
 20
-0.0021518661
 30
0.0
 40
29.9997157749605
100
AcDbArc
 50
125.12523444
 51
133.3887893745
  0
ARC
  5
2B5
330
1F
100
AcDbEntity
  8
0
  6
Continuous
 62
     7
370
    15
100
AcDbCircle
 10
-17.4739206327
 20
26.7614032471
 30
0.0
 40
1.000001483859345
100
AcDbArc
 50
121.7571698208
 51
211.7568505895
  0
ARC
  5
2B6
330
1F
100
AcDbEntity
  8
0
  6
Continuous
 62
     7
370
    15
100
AcDbCircle
 10
-16.1770950235
 20
27.5641331057
 30
0.0
 40
0.9999917619070545
100
AcDbArc
 50
31.756545277
 51
121.7568645075
  0
ARC
  5
2B7
330
1F
100
AcDbEntity
  8
0
  6
Continuous
 62
     7
370
    15
100
AcDbCircle
 10
-0.0108335561
 20
-0.0020706914
 30
0.0
 40
29.99961929371159
100
AcDbArc
 50
110.125146554
 51
118.3887192188
  0
ARC
  5
2B8
330
1F
100
AcDbEntity
  8
0
  6
Continuous
 62
     7
370
    15
100
AcDbCircle
 10
-9.9519441419
 20
30.3692585789
 30
0.0
 40
0.9999977120583934
100
AcDbArc
 50
106.7570849678
 51
196.7570134376
  0
ARC
  5
2B9
330
1F
100
AcDbEntity
  8
0
  6
Continuous
 62
     7
370
    15
100
AcDbCircle
 10
-8.4915444329
 20
30.8089826485
 30
0.0
 40
0.9999955336937549
100
AcDbArc
 50
16.7566301313
 51
106.756701659
  0
ARC
  5
2BA
330
1F
100
AcDbEntity
  8
0
  6
Continuous
 62
     7
370
    15
100
AcDbCircle
 10
-0.0108413767
 20
-0.0020505138
 30
0.0
 40
29.99959767550273
100
AcDbArc
 50
95.12504536
 51
103.3886219975
  0
ARC
  5
2BB
330
1F
100
AcDbEntity
  8
0
  6
Continuous
 62
     7
370
    15
100
AcDbCircle
 10
-1.7524912708
 20
31.9073342078
 30
0.0
 40
0.9999936484214657
100
AcDbArc
 50
91.7569391779
 51
181.757134516
  0
ARC
  5
2BC
330
1F
100
AcDbEntity
  8
0
  6
Continuous
 62
     7
370
    15
100
AcDbCircle
 10
-0.2280434212
 20
31.95408504
 30
0.0
 40
0.999999597335516
100
AcDbArc
 50
1.7567759216
 51
91.7565805815
  0
ARC
  5
2BD
330
1F
100
AcDbEntity
  8
0
  6
Continuous
 62
     7
370
    15
100
AcDbCircle
 10
-0.0108411329
 20
-0.002109455
 30
0.0
 40
29.9996567128624
100
AcDbArc
 50
80.1249579731
 51
88.3885237613
  0
ARC
  5
2BE
330
1F
100
AcDbEntity
  8
0
  6
Continuous
 62
     7
370
    15
100
AcDbCircle
 10
6.5656597493
 20
31.2708119579
 30
0.0
 40
0.9999903817950717
100
AcDbArc
 50
76.7567715151
 51
166.7571813814
  0
ARC
  5
2BF
330
1F
100
AcDbEntity
  8
0
  6
Continuous
 62
     7
370
    15
100
AcDbCircle
 10
8.0502649371
 20
30.9214043763
 30
0.0
 40
1.000002863981059
100
AcDbArc
 50
346.7569435834
 51
76.7565337174
  0
ARC
  5
2C0
330
1F
100
AcDbEntity
  8
0
  6
Continuous
 62
     7
370
    15
100
AcDbCircle
 10
-0.0108704639
 20
-0.0022295597
 30
0.0
 40
29.99978058690905
100
AcDbArc
 50
65.1249078087
 51
73.3884508327
  0
ARC
  5
2C1
330
1F
100
AcDbEntity
  8
0
  6
Continuous
 62
     7
370
    15
100
AcDbCircle
 10
14.4356407207
 20
28.5030684996
 30
0.0
 40
0.9999887874620419
100
AcDbArc
 50
61.7566269049
 51
151.7571414758
  0
ARC
  5
2C2
330
1F
100
AcDbEntity
  8
0
  6
Continuous
 62
     7
370
    15
100
AcDbCircle
 10
15.7792288772
 20
27.7813161859
 30
0.0
 40
1.000004458328345
100
AcDbArc
 50
331.7570881923
 51
61.7565736234
  0
ARC
  5
2C3
330
1F
100
AcDbEntity
  8
0
  6
Continuous
 62
     7
370
    15
100
AcDbCircle
 10
-0.0109441178
 20
-0.0023661836
 30
0.0
 40
29.9999361058778
100
AcDbArc
 50
50.1249083081
 51
58.3884227528
  0
ARC
  5
2C4
330
1F
100
AcDbEntity
  8
0
  6
Continuous
 62
     7
370
    15
100
AcDbCircle
 10
21.3211245827
 20
23.7927200443
 30
0.0
 40
0.999989292617424
100
AcDbArc
 50
46.756544096
 51
136.7570254918
  0
ARC
  5
2C5
330
1F
100
AcDbEntity
  8
0
  6
Continuous
 62
     7
370
    15
100
AcDbCircle
 10
22.4321332106
 20
22.7478114265
 30
0.0
 40
1.000003953168085
100
AcDbArc
 50
316.7571710009
 51
46.7566896065
  0
ARC
  5
2C6
330
1F
100
AcDbEntity
  8
0
  6
Continuous
 62
     7
370
    15
100
AcDbCircle
 10
-0.0110431361
 20
-0.0024723936
 30
0.0
 40
30.0000815986306
100
AcDbArc
 50
35.1249593374
 51
43.3884470454
  0
ARC
  5
2C7
330
1F
100
AcDbEntity
  8
0
  6
Continuous
 62
     7
370
    15
100
AcDbCircle
 10
26.7528757196
 20
17.4607690067
 30
0.0
 40
0.9999917619070424
100
AcDbArc
 50
31.756545277
 51
121.7568645075
  0
ARC
  5
2C8
330
1F
100
AcDbEntity
  8
0
  6
Continuous
 62
     7
370
    15
100
AcDbCircle
 10
27.5555935495
 20
16.16391386
 30
0.0
 40
1.000001483859356
100
AcDbArc
 50
301.7571698208
 51
31.7568505895
  0
ARC
  5
2C9
330
1F
100
AcDbEntity
  8
0
  6
Continuous
 62
     7
370
    15
100
AcDbCircle
 10
-0.0111243114
 20
-0.002524205
 30
0.0
 40
30.00017808037974
100
AcDbArc
 50
20.125047223
 51
28.3885172012
  0
ARC
  5
2CA
330
1F
100
AcDbEntity
  8
0
  6
Continuous
 62
     7
370
    15
100
AcDbCircle
 10
30.3607283365
 20
9.9387282496
 30
0.0
 40
0.9999955336937347
100
AcDbArc
 50
16.7566301313
 51
106.756701659
  0
ARC
  5
2CB
330
1F
100
AcDbEntity
  8
0
  6
Continuous
 62
     7
370
    15
100
AcDbCircle
 10
30.8004536755
 20
8.4783042936
 30
0.0
 40
0.9999977120583914
100
AcDbArc
 50
286.7570849678
 51
16.7570134376
  0
ARC
  5
2CC
330
1F
100
AcDbEntity
  8
0
  6
Continuous
 62
     7
370
    15
100
AcDbCircle
 10
-0.0111444893
 20
-0.0025320255
 30
0.0
 40
30.00019969873075
100
AcDbArc
 50
5.1251484164
 51
13.3886144218
  0
ARC
  5
2CD
330
1F
100
AcDbEntity
  8
0
  6
Continuous
 62
     7
370
    15
100
AcDbCircle
 10
31.8988131916
 20
1.7392136888
 30
0.0
 40
0.999999597335505
100
AcDbArc
 50
1.7567759216
 51
91.7565805815
  0
ARC
  5
2CE
330
1F
100
AcDbEntity
  8
0
  6
Continuous
 62
     7
370
    15
100
AcDbCircle
 10
31.9455804641
 20
0.2147442702
 30
0.0
 40
0.9999936484214913
100
AcDbArc
 50
271.7569391779
 51
1.757134516
  0
ARC
  5
2CF
330
1F
100
AcDbEntity
  8
0
  6
Continuous
 62
     7
370
    15
100
AcDbCircle
 10
-0.0110855476
 20
-0.0025317816
 30
0.0
 40
30.00014066101333
100
AcDbArc
 50
350.1252358029
 51
358.3887126574
  0
ARC
  5
2D0
330
1F
100
AcDbEntity
  8
0
  6
Continuous
 62
     7
370
    15
100
AcDbCircle
 10
31.2623132073
 20
-6.5789903772
 30
0.0
 40
1.00000286398106
100
AcDbArc
 50
346.7569435834
 51
76.7565337174
  0
ARC
  5
2D1
330
1F
100
AcDbEntity
  8
0
  6
Continuous
 62
     7
370
    15
100
AcDbCircle
 10
30.9129344857
 20
-8.0636173874
 30
0.0
 40
0.9999903817950728
100
AcDbArc
 50
256.7567715151
 51
346.7571813814
  0
ARC
  5
2D2
330
1F
100
AcDbEntity
  8
0
  6
Continuous
 62
     7
370
    15
100
AcDbCircle
 10
-0.0109654423
 20
-0.0025611121
 30
0.0
 40
30.00001678646604
100
AcDbArc
 50
335.1252859677
 51
343.388785586
  0
ARC
  5
2D3
330
1F
100
AcDbEntity
  8
0
  6
Continuous
 62
     7
370
    15
100
AcDbCircle
 10
30.3714801995
 20
9.9411708253
 30
0.0
 40
0.9999959051206625
100
AcDbArc
 50
16.7566385969
 51
102.7997813604
  0
ARC
  5
2D4
330
1F
100
AcDbEntity
  8
0
  6
Continuous
 62
     7
370
    15
100
AcDbCircle
 10
30.8112058516
 20
8.4807471179
 30
0.0
 40
0.9999977120583945
100
AcDbArc
 50
286.7570849678
 51
16.7570134376
  0
ARC
  5
2D5
330
1F
100
AcDbEntity
  8
0
  6
Continuous
 62
     7
370
    15
100
AcDbCircle
 10
31.9095653677
 20
1.7416565131
 30
0.0
 40
0.9999995973355049
100
AcDbArc
 50
1.7567759216
 51
91.7565805815
  0
ARC
  5
2D6
330
1F
100
AcDbEntity
  8
0
  6
Continuous
 62
     7
370
    15
100
AcDbCircle
 10
31.956331713
 20
0.2171874235
 30
0.0
 40
0.9999945651037594
100
AcDbArc
 50
282.8000718063
 51
1.7571140494
  0
ARC
  5
2D7
330
1F
100
AcDbEntity
  8
0
  6
Continuous
 62
     7
370
    15
100
AcDbCircle
 10
27.5663457256
 20
16.1663566843
 30
0.0
 40
1.000001483859353
100
AcDbArc
 50
301.7571698208
 51
31.7568505895
  0
ARC
  5
2D8
330
1F
100
AcDbEntity
  8
0
  6
Continuous
 62
     7
370
    15
100
AcDbCircle
 10
26.763627062
 20
17.4632107477
 30
0.0
 40
0.9999930410030358
100
AcDbArc
 50
31.7565729159
 51
102.7998671078
  0
ARC
  5
2D9
330
1F
100
AcDbEntity
  8
0
  6
Continuous
 62
     7
370
    15
100
AcDbCircle
 10
-0.0003923132
 20
-0.0000892012
 30
0.0
 40
30.00019969873074
100
AcDbArc
 50
5.1251484164
 51
13.3886144218
  0
ARC
  5
2DA
330
1F
100
AcDbEntity
  8
0
  6
Continuous
 62
     7
370
    15
100
AcDbCircle
 10
-0.0003721354
 20
-0.0000813807
 30
0.0
 40
30.00017808037983
100
AcDbArc
 50
20.125047223
 51
28.3885172012
  0
ARC
  5
2DB
330
1F
100
AcDbEntity
  8
0
  6
Continuous
 62
     7
370
    15
100
AcDbCircle
 10
31.2730653834
 20
-6.5765475529
 30
0.0
 40
1.000002863981058
100
AcDbArc
 50
346.7569435834
 51
76.7565337174
  0
ARC
  5
2DC
330
1F
100
AcDbEntity
  8
0
  6
Continuous
 62
     7
370
    15
100
AcDbCircle
 10
30.9236847368
 20
-8.0611730486
 30
0.0
 40
0.9999926024614476
100
AcDbArc
 50
282.8000315494
 51
346.7571221786
  0
ARC
  5
2DD
330
1F
100
AcDbEntity
  8
0
  6
Continuous
 62
     7
370
    15
100
AcDbCircle
 10
-0.0003333716
 20
-0.0000889573
 30
0.0
 40
30.00014066101394
100
AcDbArc
 50
350.1252358029
 51
358.3887126574
  0
ARC
  5
2DE
330
1F
100
AcDbEntity
  8
0
  6
Continuous
 62
     7
370
    15
100
AcDbCircle
 10
-0.0002909601
 20
-0.0000295693
 30
0.0
 40
30.00008159863152
100
AcDbArc
 50
35.1249593374
 51
43.3884470454
  0
ARC
  5
2DF
330
1F
100
AcDbEntity
  8
0
  6
Continuous
 62
     7
370
    15
100
AcDbCircle
 10
22.4428853866
 20
22.7502542508
 30
0.0
 40
1.000003953168088
100
AcDbArc
 50
316.7571710009
 51
46.7566896065
  0
ARC
  5
2E0
330
1F
100
AcDbEntity
  8
0
  6
Continuous
 62
     7
370
    15
100
AcDbCircle
 10
21.3318759849
 20
23.7951607899
 30
0.0
 40
0.9999913369688808
100
AcDbArc
 50
46.7565933909
 51
102.7998916419
  0
ARC
  5
2E1
330
1F
100
AcDbEntity
  8
0
  6
Continuous
 62
     7
370
    15
100
AcDbCircle
 10
-0.0002132663
 20
-0.0001182878
 30
0.0
 40
30.00001678646619
100
AcDbArc
 50
335.1252859677
 51
343.388785586
  0
ARC
  5
2E2
330
1F
100
AcDbEntity
  8
0
  6
Continuous
 62
     7
370
    15
100
AcDbCircle
 10
28.5053582509
 20
-14.4465692153
 30
0.0
 40
1.000004458328356
100
AcDbArc
 50
331.7570881923
 51
61.7565736234
  0
ARC
  5
2E3
330
1F
100
AcDbEntity
  8
0
  6
Continuous
 62
     7
370
    15
100
AcDbCircle
 10
-0.0001919417
 20
0.0000766407
 30
0.0
 40
29.9999361058778
100
AcDbArc
 50
50.1249083081
 51
58.3884227528
  0
ARC
  5
2E4
330
1F
100
AcDbEntity
  8
0
  6
Continuous
 62
     7
370
    15
100
AcDbCircle
 10
27.7836398704
 20
-15.7901786796
 30
0.0
 40
0.9999903560864465
100
AcDbArc
 50
282.799988791
 51
331.7571091142
  0
ARC
  5
2E5
330
1F
100
AcDbEntity
  8
0
  6
Continuous
 62
     7
370
    15
100
AcDbCircle
 10
15.7899810532
 20
27.7837590102
 30
0.0
 40
1.000004458328347
100
AcDbArc
 50
331.7570881923
 51
61.7565736234
  0
ARC
  5
2E6
330
1F
100
AcDbEntity
  8
0
  6
Continuous
 62
     7
370
    15
100
AcDbCircle
 10
-0.0000766418
 20
-0.0001919408
 30
0.0
 40
29.99986126735756
100
AcDbArc
 50
320.1252854689
 51
328.3888136665
  0
ARC
  5
2E7
330
1F
100
AcDbEntity
  8
0
  6
Continuous
 62
     7
370
    15
100
AcDbCircle
 10
14.4463926826
 20
28.5055109398
 30
0.0
 40
0.9999892272496834
100
AcDbArc
 50
61.7566265085
 51
102.7999254089
  0
ARC
  5
2E8
330
1F
100
AcDbEntity
  8
0
  6
Continuous
 62
     7
370
    15
100
AcDbCircle
 10
23.795059569
 20
-21.3320803671
 30
0.0
 40
1.000003953168093
100
AcDbArc
 50
316.7571710009
 51
46.7566896065
  0
ARC
  5
2E9
330
1F
100
AcDbEntity
  8
0
  6
Continuous
 62
     7
370
    15
100
AcDbCircle
 10
-0.0001182879
 20
0.0002132646
 30
0.0
 40
29.99978058690893
100
AcDbArc
 50
65.1249078087
 51
73.3884508327
  0
ARC
  5
2EA
330
1F
100
AcDbEntity
  8
0
  6
Continuous
 62
     7
370
    15
100
AcDbCircle
 10
22.7501857257
 20
-22.443110326
 30
0.0
 40
0.9999882139279606
100
AcDbArc
 50
282.7999584603
 51
316.7570637308
  0
ARC
  5
2EB
330
1F
100
AcDbEntity
  8
0
  6
Continuous
 62
     7
370
    15
100
AcDbCircle
 10
8.0610171132
 20
30.9238472006
 30
0.0
 40
1.000002863981064
100
AcDbArc
 50
346.7569435834
 51
76.7565337174
  0
ARC
  5
2EC
330
1F
100
AcDbEntity
  8
0
  6
Continuous
 62
     7
370
    15
100
AcDbCircle
 10
0.0000295687
 20
-0.0002909582
 30
0.0
 40
29.99971577496104
100
AcDbArc
 50
305.12523444
 51
313.3887893745
  0
ARC
  5
2ED
330
1F
100
AcDbEntity
  8
0
  6
Continuous
 62
     7
370
    15
100
AcDbCircle
 10
6.5764112331
 20
31.2732578802
 30
0.0
 40
0.9999875247679871
100
AcDbArc
 50
76.7566922448
 51
102.7999438745
  0
ARC
  5
2EE
330
1F
100
AcDbEntity
  8
0
  6
Continuous
 62
     7
370
    15
100
AcDbCircle
 10
17.4631684566
 20
-26.7638460714
 30
0.0
 40
1.000001483859343
100
AcDbArc
 50
301.7571698208
 51
31.7568505895
  0
ARC
  5
2EF
330
1F
100
AcDbEntity
  8
0
  6
Continuous
 62
     7
370
    15
100
AcDbCircle
 10
-0.0000889568
 20
0.0003333693
 30
0.0
 40
29.99965671286159
100
AcDbArc
 50
80.1249579731
 51
88.3885237613
  0
ARC
  5
2F0
330
1F
100
AcDbEntity
  8
0
  6
Continuous
 62
     7
370
    15
100
AcDbCircle
 10
7.1392418614
 20
3.7206157029
 30
0.0
 40
0.9000000000127177
100
AcDbArc
 50
102.8002530916
 51
282.7996438664
  0
ARC
  5
2F1
330
1F
100
AcDbEntity
  8
0
  6
Continuous
 62
     7
370
    15
100
AcDbCircle
 10
7.246549781
 20
0.2222619559
 30
0.0
 40
0.9000000000127174
100
AcDbArc
 50
102.8002530916
 51
282.7996438664
  0
ARC
  5
2F2
330
1F
100
AcDbEntity
  8
0
  6
Continuous
 62
     7
370
    15
100
AcDbCircle
 10
0.0000813801
 20
-0.0003721329
 30
0.0
 40
29.99961929371132
100
AcDbArc
 50
290.125146554
 51
298.3887192188
  0
ARC
  5
2F3
330
1F
100
AcDbEntity
  8
0
  6
Continuous
 62
     7
370
    15
100
AcDbCircle
 10
-0.2172912451
 20
31.9565278643
 30
0.0
 40
0.9999995973355045
100
AcDbArc
 50
1.7567759216
 51
91.7565805815
  0
ARC
  5
2F4
330
1F
100
AcDbEntity
  8
0
  6
Continuous
 62
     7
370
    15
100
AcDbCircle
 10
7.3538577005
 20
-3.276091791
 30
0.0
 40
0.9000000000127177
100
AcDbArc
 50
102.8002530916
 51
282.7996438664
  0
ARC
  5
2F5
330
1F
100
AcDbEntity
  8
0
  6
Continuous
 62
     7
370
    15
100
AcDbCircle
 10
3.2760560999
 20
7.353889328
 30
0.0
 40
0.9000000000127191
100
AcDbArc
 50
102.8002530916
 51
282.7996438664
  0
ARC
  5
2F6
330
1F
100
AcDbEntity
  8
0
  6
Continuous
 62
     7
370
    15
100
AcDbCircle
 10
0.0000262726
 20
0.000005969
 30
0.0
 40
5.000000000072588
100
AcDbArc
 50
102.8002572129
 51
282.7996397451
  0
ARC
  5
2F7
330
1F
100
AcDbEntity
  8
0
  6
Continuous
 62
     7
370
    15
100
AcDbCircle
 10
-0.0000891769
 20
0.0003921192
 30
0.0
 40
29.99959786818091
100
AcDbArc
 50
95.1250453724
 51
102.7999483114
  0
ARC
  5
2F8
330
1F
100
AcDbEntity
  8
0
  6
Continuous
 62
     7
370
    15
100
AcDbCircle
 10
9.9411919659
 20
-30.3717014032
 30
0.0
 40
0.9999977120584025
100
AcDbArc
 50
286.7570849678
 51
16.7570134376
  0
ARC
  5
2F9
330
1F
100
AcDbEntity
  8
0
  6
Continuous
 62
     7
370
    15
100
AcDbCircle
 10
3.720617481
 20
-7.1392904808
 30
0.0
 40
0.9000000000127191
100
AcDbArc
 50
102.8002530916
 51
282.7996438664
  0
ARC
  5
2FA
330
1F
100
AcDbEntity
  8
0
  6
Continuous
 62
     7
370
    15
100
AcDbCircle
 10
-0.2222760246
 20
7.2465909645
 30
0.0
 40
0.9000000000127182
100
AcDbArc
 50
102.8002530916
 51
282.7996438664
  0
ARC
  5
2FB
330
1F
100
AcDbEntity
  8
0
  6
Continuous
 62
     7
370
    15
100
AcDbCircle
 10
-8.4807925699
 20
30.8114252242
 30
0.0
 40
0.9999959051206923
100
AcDbArc
 50
16.7566385969
 51
102.7997813604
  0
ARC
  5
2FC
330
1F
100
AcDbEntity
  8
0
  6
Continuous
 62
     7
370
    15
100
AcDbCircle
 10
0.2222853565
 20
-7.2465888444
 30
0.0
 40
0.9000000000127198
100
AcDbArc
 50
102.8002530916
 51
282.7996438664
  0
ARC
  5
2FD
330
1F
100
AcDbEntity
  8
0
  6
Continuous
 62
     7
370
    15
100
AcDbCircle
 10
-3.7206081491
 20
7.139292601
 30
0.0
 40
0.9000000000127187
100
AcDbArc
 50
102.8002530916
 51
282.7996438664
  0
ARC
  5
2FE
330
1F
100
AcDbEntity
  8
0
  6
Continuous
 62
     7
370
    15
100
AcDbCircle
 10
-3.276046768
 20
-7.3538872079
 30
0.0
 40
0.9000000000127187
100
AcDbArc
 50
102.8002530916
 51
282.7996438664
  0
ARC
  5
2FF
330
1F
100
AcDbEntity
  8
0
  6
Continuous
 62
     7
370
    15
100
AcDbCircle
 10
1.7417381675
 20
-31.9097767031
 30
0.0
 40
0.9999945651037062
100
AcDbArc
 50
282.8000718063
 51
1.7571140494
  0
ARC
  5
300
330
1F
100
AcDbEntity
  8
0
  6
Continuous
 62
     7
370
    15
100
AcDbCircle
 10
-7.3538483687
 20
3.2760939112
 30
0.0
 40
0.9000000000127173
100
AcDbArc
 50
102.8002530916
 51
282.7996438664
  0
ARC
  5
301
330
1F
100
AcDbEntity
  8
0
  6
Continuous
 62
     7
370
    15
100
AcDbCircle
 10
-7.2465404491
 20
-0.2222598358
 30
0.0
 40
0.9000000000127176
100
AcDbArc
 50
102.8002530916
 51
282.7996438664
  0
ARC
  5
302
330
1F
100
AcDbEntity
  8
0
  6
Continuous
 62
     7
370
    15
100
AcDbCircle
 10
-7.1392325295
 20
-3.7206135827
 30
0.0
 40
0.9000000000127193
100
AcDbArc
 50
102.8002530916
 51
282.7996438664
  0
ARC
  5
303
330
1F
100
AcDbEntity
  8
0
  6
Continuous
 62
     7
370
    15
100
AcDbCircle
 10
-16.1663436812
 20
27.5665748466
 30
0.0
 40
0.9999930410030382
100
AcDbArc
 50
31.7565729159
 51
102.7998671078
  0
ARC
  5
304
330
1F
100
AcDbEntity
  8
0
  6
Continuous
 62
     7
370
    15
100
AcDbCircle
 10
-6.5764138502
 20
-31.2732532677
 30
0.0
 40
0.9999926024614294
100
AcDbArc
 50
282.8000315494
 51
346.7571221786
  0
ARC
  5
305
330
1F
100
AcDbEntity
  8
0
  6
Continuous
 62
     7
370
    15
100
AcDbCircle
 10
-22.750186171
 20
22.4431070222
 30
0.0
 40
0.9999913369688747
100
AcDbArc
 50
46.7565933909
 51
102.7998916419
  0
ARC
  5
306
330
1F
100
AcDbEntity
  8
0
  6
Continuous
 62
     7
370
    15
100
AcDbCircle
 10
-14.4463940114
 20
-28.5055100841
 30
0.0
 40
0.9999903560864605
100
AcDbArc
 50
282.799988791
 51
331.7571091141
  0
ARC
  5
307
330
1F
100
AcDbEntity
  8
0
  6
Continuous
 62
     7
370
    15
100
AcDbCircle
 10
-27.7836411992
 20
15.7901795353
 30
0.0
 40
0.999989227249712
100
AcDbArc
 50
61.7566265085
 51
102.7999254089
  0
ARC
  5
308
330
1F
100
AcDbEntity
  8
0
  6
Continuous
 62
     7
370
    15
100
AcDbCircle
 10
-21.3318764302
 20
-23.7951640937
 30
0.0
 40
0.9999882139279608
100
AcDbArc
 50
282.7999584603
 51
316.7570637308
  0
ARC
  5
309
330
1F
100
AcDbEntity
  8
0
  6
Continuous
 62
     7
370
    15
100
AcDbCircle
 10
-30.9236873539
 20
8.0611776611
 30
0.0
 40
0.999987524768034
100
AcDbArc
 50
76.7566922448
 51
102.7999438745
  0
ENDSEC
  0
SECTION
  2
OBJECTS
  0
DICTIONARY
  5
C
330
0
100
AcDbDictionary
281
     1
  3
ACAD_GROUP
350
D
  3
ACAD_LAYOUT
350
1A
  3
ACAD_MLINESTYLE
350
17
  3
ACAD_PLOTSETTINGS
350
19
  3
ACAD_PLOTSTYLENAME
350
E
  3
ACAD_SCALELIST
350
47
  0
DICTIONARY
  5
D
102
{ACAD_REACTORS
330
C
102
}
330
C
100
AcDbDictionary
281
     1
  0
DICTIONARY
  5
1A
102
{ACAD_REACTORS
330
C
102
}
330
C
100
AcDbDictionary
281
     1
  3
Layout1
350
1E
  3
Layout2
350
26
  3
Model
350
22
  0
DICTIONARY
  5
17
102
{ACAD_REACTORS
330
C
102
}
330
C
100
AcDbDictionary
281
     1
  3
Standard
350
18
  0
DICTIONARY
  5
19
102
{ACAD_REACTORS
330
C
102
}
330
C
100
AcDbDictionary
281
     1
  0
ACDBDICTIONARYWDFLT
  5
E
102
{ACAD_REACTORS
330
C
102
}
330
C
100
AcDbDictionary
281
     1
  3
Normal
350
F
100
AcDbDictionaryWithDefault
340
F
  0
DICTIONARY
  5
47
102
{ACAD_REACTORS
330
C
102
}
330
C
100
AcDbDictionary
281
     1
  3
A0
350
48
  3
A1
350
49
  3
A2
350
4A
  3
A3
350
4B
  3
A4
350
4C
  3
A5
350
4D
  3
A6
350
4E
  3
A7
350
4F
  3
A8
350
50
  3
A9
350
51
  3
B0
350
52
  3
B1
350
53
  3
B2
350
54
  3
B3
350
55
  3
B4
350
56
  3
B5
350
57
  3
B6
350
58
  3
B7
350
59
  3
B8
350
5A
  3
B9
350
5B
  3
C0
350
5C
  3
C1
350
5D
  3
C2
350
5E
  3
C3
350
5F
  3
C4
350
60
  3
C5
350
61
  3
C6
350
62
  3
C7
350
63
  3
C8
350
64
  3
C9
350
65
  3
D0
350
66
  3
D1
350
67
  3
D2
350
68
  0
LAYOUT
  5
1E
102
{ACAD_REACTORS
330
1A
102
}
330
1A
100
AcDbPlotSettings
  1

  2
none_device
  4

  6

 40
0.0
 41
0.0
 42
0.0
 43
0.0
 44
0.0
 45
0.0
 46
0.0
 47
0.0
 48
0.0
 49
0.0
140
0.0
141
0.0
142
1.0
143
1.0
 70
   688
 72
     1
 73
     0
 74
     5
  7

 75
    16
147
1.0
148
0.0
149
0.0
100
AcDbLayout
  1
Layout1
 70
     1
 71
     1
 10
0.0
 20
0.0
 11
420.0
 21
297.0
 12
0.0
 22
0.0
 32
0.0
 14
1.0000000000E+20
 24
1.0000000000E+20
 34
1.0000000000E+20
 15
-1.0000000000E+20
 25
-1.0000000000E+20
 35
-1.0000000000E+20
146
0.0
 13
0.0
 23
0.0
 33
0.0
 16
1.0
 26
0.0
 36
0.0
 17
0.0
 27
1.0
 37
0.0
 76
     0
330
1B
  0
LAYOUT
  5
26
102
{ACAD_REACTORS
330
1A
102
}
330
1A
100
AcDbPlotSettings
  1

  2
none_device
  4

  6

 40
0.0
 41
0.0
 42
0.0
 43
0.0
 44
0.0
 45
0.0
 46
0.0
 47
0.0
 48
0.0
 49
0.0
140
0.0
141
0.0
142
1.0
143
1.0
 70
   688
 72
     1
 73
     0
 74
     5
  7

 75
    16
147
1.0
148
0.0
149
0.0
100
AcDbLayout
  1
Layout2
 70
     1
 71
     2
 10
0.0
 20
0.0
 11
0.0
 21
0.0
 12
0.0
 22
0.0
 32
0.0
 14
0.0
 24
0.0
 34
0.0
 15
0.0
 25
0.0
 35
0.0
146
0.0
 13
0.0
 23
0.0
 33
0.0
 16
1.0
 26
0.0
 36
0.0
 17
0.0
 27
1.0
 37
0.0
 76
     0
330
23
  0
LAYOUT
  5
22
102
{ACAD_REACTORS
330
1A
102
}
330
1A
100
AcDbPlotSettings
  1

  2
none_device
  4
ANSI_A_(11.00_x_8.50_Inches)
  6

 40
6.35
 41
19.05
 42
6.35000508
 43
19.05000254
 44
279.4
 45
215.9
 46
133.367430258
 47
88.9039593442
 48
0.0
 49
0.0
140
0.0
141
0.0
142
0.1276634523
143
1.0
 70
  1696
 72
     0
 73
     0
 74
     0
  7

 75
     0
147
0.0179189148
148
-1300.4909072572
149
0.0
100
AcDbLayout
  1
Model
 70
     1
 71
     0
 10
0.0
 20
0.0
 11
420.0
 21
297.0
 12
0.0
 22
0.0
 32
0.0
 14
-32.9670784646
 24
-32.958970286
 34
0.0
 15
32.9563262781
 25
32.9565274617
 35
0.0
146
0.0
 13
0.0
 23
0.0
 33
0.0
 16
1.0
 26
0.0
 36
0.0
 17
0.0
 27
1.0
 37
0.0
 76
     0
330
1F
331
29
  0
MLINESTYLE
  5
18
102
{ACAD_REACTORS
330
17
102
}
330
17
100
AcDbMlineStyle
  2
Standard
 70
     0
  3

 62
   256
 51
90.0
 52
90.0
 71
     2
 49
0.5
 62
   256
  6
BYLAYER
 49
-0.5
 62
   256
  6
BYLAYER
  0
ACDBPLACEHOLDER
  5
F
102
{ACAD_REACTORS
330
E
102
}
330
E
  0
SCALE
  5
48
102
{ACAD_REACTORS
330
47
102
}
330
47
100
AcDbScale
 70
     0
300
1:1
140
1.0
141
1.0
290
     1
  0
SCALE
  5
49
102
{ACAD_REACTORS
330
47
102
}
330
47
100
AcDbScale
 70
     0
300
1:2
140
1.0
141
2.0
290
     0
  0
SCALE
  5
4A
102
{ACAD_REACTORS
330
47
102
}
330
47
100
AcDbScale
 70
     0
300
1:4
140
1.0
141
4.0
290
     0
  0
SCALE
  5
4B
102
{ACAD_REACTORS
330
47
102
}
330
47
100
AcDbScale
 70
     0
300
1:5
140
1.0
141
5.0
290
     0
  0
SCALE
  5
4C
102
{ACAD_REACTORS
330
47
102
}
330
47
100
AcDbScale
 70
     0
300
1:8
140
1.0
141
8.0
290
     0
  0
SCALE
  5
4D
102
{ACAD_REACTORS
330
47
102
}
330
47
100
AcDbScale
 70
     0
300
1:10
140
1.0
141
10.0
290
     0
  0
SCALE
  5
4E
102
{ACAD_REACTORS
330
47
102
}
330
47
100
AcDbScale
 70
     0
300
1:16
140
1.0
141
16.0
290
     0
  0
SCALE
  5
4F
102
{ACAD_REACTORS
330
47
102
}
330
47
100
AcDbScale
 70
     0
300
1:20
140
1.0
141
20.0
290
     0
  0
SCALE
  5
50
102
{ACAD_REACTORS
330
47
102
}
330
47
100
AcDbScale
 70
     0
300
1:30
140
1.0
141
30.0
290
     0
  0
SCALE
  5
51
102
{ACAD_REACTORS
330
47
102
}
330
47
100
AcDbScale
 70
     0
300
1:40
140
1.0
141
40.0
290
     0
  0
SCALE
  5
52
102
{ACAD_REACTORS
330
47
102
}
330
47
100
AcDbScale
 70
     0
300
1:50
140
1.0
141
50.0
290
     0
  0
SCALE
  5
53
102
{ACAD_REACTORS
330
47
102
}
330
47
100
AcDbScale
 70
     0
300
1:100
140
1.0
141
100.0
290
     0
  0
SCALE
  5
54
102
{ACAD_REACTORS
330
47
102
}
330
47
100
AcDbScale
 70
     0
300
2:1
140
2.0
141
1.0
290
     0
  0
SCALE
  5
55
102
{ACAD_REACTORS
330
47
102
}
330
47
100
AcDbScale
 70
     0
300
4:1
140
4.0
141
1.0
290
     0
  0
SCALE
  5
56
102
{ACAD_REACTORS
330
47
102
}
330
47
100
AcDbScale
 70
     0
300
8:1
140
8.0
141
1.0
290
     0
  0
SCALE
  5
57
102
{ACAD_REACTORS
330
47
102
}
330
47
100
AcDbScale
 70
     0
300
10:1
140
10.0
141
1.0
290
     0
  0
SCALE
  5
58
102
{ACAD_REACTORS
330
47
102
}
330
47
100
AcDbScale
 70
     0
300
100:1
140
100.0
141
1.0
290
     0
  0
SCALE
  5
59
102
{ACAD_REACTORS
330
47
102
}
330
47
100
AcDbScale
 70
     0
300
1/128" = 1'-0"
140
0.0078125
141
12.0
290
     0
  0
SCALE
  5
5A
102
{ACAD_REACTORS
330
47
102
}
330
47
100
AcDbScale
 70
     0
300
1/64" = 1'-0"
140
0.015625
141
12.0
290
     0
  0
SCALE
  5
5B
102
{ACAD_REACTORS
330
47
102
}
330
47
100
AcDbScale
 70
     0
300
1/32" = 1'-0"
140
0.03125
141
12.0
290
     0
  0
SCALE
  5
5C
102
{ACAD_REACTORS
330
47
102
}
330
47
100
AcDbScale
 70
     0
300
1/16" = 1'-0"
140
0.0625
141
12.0
290
     0
  0
SCALE
  5
5D
102
{ACAD_REACTORS
330
47
102
}
330
47
100
AcDbScale
 70
     0
300
3/32" = 1'-0"
140
0.09375
141
12.0
290
     0
  0
SCALE
  5
5E
102
{ACAD_REACTORS
330
47
102
}
330
47
100
AcDbScale
 70
     0
300
1/8" = 1'-0"
140
0.125
141
12.0
290
     0
  0
SCALE
  5
5F
102
{ACAD_REACTORS
330
47
102
}
330
47
100
AcDbScale
 70
     0
300
3/16" = 1'-0"
140
0.1875
141
12.0
290
     0
  0
SCALE
  5
60
102
{ACAD_REACTORS
330
47
102
}
330
47
100
AcDbScale
 70
     0
300
1/4" = 1'-0"
140
0.25
141
12.0
290
     0
  0
SCALE
  5
61
102
{ACAD_REACTORS
330
47
102
}
330
47
100
AcDbScale
 70
     0
300
3/8" = 1'-0"
140
0.375
141
12.0
290
     0
  0
SCALE
  5
62
102
{ACAD_REACTORS
330
47
102
}
330
47
100
AcDbScale
 70
     0
300
1/2" = 1'-0"
140
0.5
141
12.0
290
     0
  0
SCALE
  5
63
102
{ACAD_REACTORS
330
47
102
}
330
47
100
AcDbScale
 70
     0
300
3/4" = 1'-0"
140
0.75
141
12.0
290
     0
  0
SCALE
  5
64
102
{ACAD_REACTORS
330
47
102
}
330
47
100
AcDbScale
 70
     0
300
1" = 1'-0"
140
1.0
141
12.0
290
     0
  0
SCALE
  5
65
102
{ACAD_REACTORS
330
47
102
}
330
47
100
AcDbScale
 70
     0
300
1-1/2" = 1'-0"
140
1.5
141
12.0
290
     0
  0
SCALE
  5
66
102
{ACAD_REACTORS
330
47
102
}
330
47
100
AcDbScale
 70
     0
300
3" = 1'-0"
140
3.0
141
12.0
290
     0
  0
SCALE
  5
67
102
{ACAD_REACTORS
330
47
102
}
330
47
100
AcDbScale
 70
     0
300
6" = 1'-0"
140
6.0
141
12.0
290
     0
  0
SCALE
  5
68
102
{ACAD_REACTORS
330
47
102
}
330
47
100
AcDbScale
 70
     0
300
1'-0" = 1'-0"
140
12.0
141
12.0
290
     0
  0
ENDSEC
  0
EOF
