%
M48
M72
T01C0.0394
T02C0.0400
T03C0.0472
%
T01
X14260Y23893
X20260Y24893
X26260Y25893
X32260Y26893
X38260Y27893
X39260Y29393
X45010Y27393
X43260Y40393
X44260Y41393
X45260Y41393
X32260Y37893
X31260Y37893
X30260Y37893
X29260Y37893
X24260Y37893
X22260Y37893
X17760Y37893
X17010Y46143
X16260Y48393
X31260Y50393
T02
X31260Y51893
X32260Y51893
X33260Y51893
X30260Y51893
X29260Y49893
X29260Y43393
X29161Y39996
X28161Y39996
X27161Y39996
X26161Y39996
X25161Y39996
X24161Y39996
X23161Y39996
X22161Y39996
X21161Y39996
X20161Y39996
X19161Y39996
X22260Y36393
X22260Y35393
X22260Y34393
X22260Y33393
X22260Y32393
X22260Y31393
X22260Y30393
X22260Y29393
X22260Y27893
X22260Y26893
X22260Y25893
X22260Y24893
X22260Y23893
X22260Y22893
X22260Y21893
X22260Y20893
X22260Y19893
X22260Y18893
X15260Y38393
X15260Y39393
X15260Y40393
X15260Y41393
X18010Y47643
X19010Y47643
X20010Y47643
X20010Y49143
X19010Y49143
X18010Y49143
X18010Y50643
X19010Y50643
X20010Y50643
X20010Y52143
X19010Y52143
X18010Y52143
X30161Y39996
X31161Y39996
X32161Y39996
X33161Y39996
X34161Y39996
X41260Y36393
X41260Y35393
X41260Y34393
X41260Y33393
X41260Y32393
X41260Y31393
X41260Y29393
X41260Y28393
X41260Y27393
X41260Y26393
X41260Y25393
X41260Y24393
X41260Y23393
X41260Y22393
X48260Y38393
X48260Y39393
X48260Y40393
X48260Y41393
X44260Y43393
X44260Y49893
T03
X14299Y19909
X14299Y21878
X19220Y21878
X20299Y21878
X20299Y19909
X19220Y19909
X25220Y19909
X26299Y19909
X26299Y21878
X25220Y21878
X31220Y21878
X32299Y21878
X32299Y19909
X31220Y19909
X37220Y19909
X38299Y19909
X38299Y21878
X37220Y21878
X43220Y21878
X44299Y21878
X44299Y19909
X43220Y19909
X49220Y19909
X49220Y21878
X25510Y47643
X23510Y47643
X24510Y43143
M30
