G75*
%MOIN*%
%OFA0B0*%
%FSLAX24Y24*%
%IPPOS*%
%LPD*%
%AMOC8*
5,1,8,0,0,1.08239X$1,22.5*
%
%ADD10C,0.0740*%
%ADD11C,0.0640*%
%ADD12OC8,0.0640*%
%ADD13R,0.0740X0.0740*%
%ADD14C,0.0850*%
%ADD15C,0.0860*%
%ADD16C,0.0394*%
%ADD17C,0.0700*%
%ADD18C,0.0295*%
D10*
X022260Y018893D03*
X022260Y019893D03*
X022260Y020893D03*
X022260Y021893D03*
X022260Y022893D03*
X022260Y023893D03*
X022260Y024893D03*
X022260Y025893D03*
X022260Y026893D03*
X022260Y027893D03*
X022260Y029393D03*
X022260Y030393D03*
X022260Y031393D03*
X022260Y032393D03*
X022260Y033393D03*
X022260Y034393D03*
X022260Y035393D03*
X022260Y036393D03*
X022161Y039996D03*
X021161Y039996D03*
X020161Y039996D03*
X023161Y039996D03*
X024161Y039996D03*
X025161Y039996D03*
X026161Y039996D03*
X027161Y039996D03*
X028161Y039996D03*
X029161Y039996D03*
X030161Y039996D03*
X031161Y039996D03*
X032161Y039996D03*
X033161Y039996D03*
X034161Y039996D03*
X041260Y036393D03*
X041260Y035393D03*
X041260Y034393D03*
X041260Y033393D03*
X041260Y032393D03*
X041260Y031393D03*
X041260Y029393D03*
X041260Y028393D03*
X041260Y027393D03*
X041260Y026393D03*
X041260Y025393D03*
X041260Y024393D03*
X041260Y023393D03*
X041260Y022393D03*
D11*
X047940Y038393D02*
X048580Y038393D01*
X048580Y039393D02*
X047940Y039393D01*
X047940Y040393D02*
X048580Y040393D01*
X048580Y041393D02*
X047940Y041393D01*
X033260Y051573D02*
X033260Y052213D01*
X032260Y052213D02*
X032260Y051573D01*
X031260Y051573D02*
X031260Y052213D01*
X030260Y052213D02*
X030260Y051573D01*
X020010Y051823D02*
X020010Y052463D01*
X019010Y052463D02*
X019010Y051823D01*
X018010Y051823D02*
X018010Y052463D01*
X018010Y050963D02*
X018010Y050323D01*
X018010Y049463D02*
X018010Y048823D01*
X019010Y048823D02*
X019010Y049463D01*
X019010Y050323D02*
X019010Y050963D01*
X020010Y050963D02*
X020010Y050323D01*
X020010Y049463D02*
X020010Y048823D01*
X020010Y047963D02*
X020010Y047323D01*
X019010Y047323D02*
X019010Y047963D01*
X018010Y047963D02*
X018010Y047323D01*
X015580Y041393D02*
X014940Y041393D01*
X014940Y040393D02*
X015580Y040393D01*
X015580Y039393D02*
X014940Y039393D01*
X014940Y038393D02*
X015580Y038393D01*
D12*
X029260Y043393D03*
X029260Y049893D03*
X044260Y049893D03*
X044260Y043393D03*
D13*
X019161Y039996D03*
D14*
X014299Y019909D03*
X014299Y021878D03*
X019220Y021878D03*
X020299Y021878D03*
X020299Y019909D03*
X019220Y019909D03*
X025220Y019909D03*
X026299Y019909D03*
X026299Y021878D03*
X025220Y021878D03*
X031220Y021878D03*
X032299Y021878D03*
X032299Y019909D03*
X031220Y019909D03*
X037220Y019909D03*
X038299Y019909D03*
X038299Y021878D03*
X037220Y021878D03*
X043220Y021878D03*
X044299Y021878D03*
X044299Y019909D03*
X043220Y019909D03*
X049220Y019909D03*
X049220Y021878D03*
D15*
X025510Y047643D03*
X023510Y047643D03*
X024510Y043143D03*
D16*
X022260Y043143D01*
X021260Y042143D01*
X021260Y039893D01*
X022161Y039996D02*
X022260Y039897D01*
X022260Y037893D01*
X022760Y037143D02*
X023260Y037643D01*
X023260Y039647D01*
X023161Y039996D01*
X024161Y039996D02*
X024260Y039897D01*
X024260Y037893D01*
X022760Y037143D02*
X019010Y037143D01*
X019161Y037295D01*
X019161Y039996D01*
X020010Y040147D02*
X020161Y039996D01*
X020010Y040147D02*
X020010Y040893D01*
X019506Y041397D01*
X019010Y041397D01*
X015506Y041397D01*
X015260Y041393D01*
X015260Y040393D02*
X015260Y039393D01*
X017510Y039393D01*
X017760Y039143D01*
X017760Y037893D01*
X019010Y037143D02*
X015260Y037143D01*
X015260Y038393D01*
X015260Y037143D02*
X015260Y020159D01*
X015510Y019909D01*
X014299Y019909D01*
X015510Y019909D02*
X020299Y019909D01*
X021065Y018143D01*
X025010Y018143D01*
X026275Y019909D01*
X026299Y019909D01*
X032299Y019909D01*
X038299Y019909D01*
X044299Y019909D01*
X044525Y019909D01*
X046010Y021393D01*
X046010Y026393D01*
X045010Y027393D01*
X044299Y021878D02*
X043315Y020893D01*
X041510Y020893D01*
X039260Y023143D01*
X039260Y029393D01*
X038260Y027893D02*
X038260Y021917D01*
X038299Y021878D01*
X032299Y021878D02*
X032299Y026893D01*
X032260Y026893D01*
X026299Y025893D02*
X026299Y021878D01*
X026260Y025893D02*
X026299Y025893D01*
X020299Y024893D02*
X020299Y021878D01*
X020260Y024893D02*
X020299Y024893D01*
X014299Y023893D02*
X014299Y021878D01*
X014260Y023893D02*
X014299Y023893D01*
X029260Y037893D02*
X029260Y039897D01*
X029161Y039996D01*
X030161Y039996D02*
X030260Y039897D01*
X030260Y037893D01*
X031260Y037893D02*
X031260Y039897D01*
X031161Y039996D01*
X032161Y039996D02*
X032260Y039897D01*
X032260Y037893D01*
X033161Y039246D02*
X034013Y038393D01*
X048260Y038393D01*
X048260Y039393D02*
X048260Y040393D01*
X043260Y040393D01*
X044260Y041393D02*
X044260Y043393D01*
X045260Y044393D02*
X041510Y044393D01*
X037112Y039996D01*
X034161Y039996D01*
X033260Y040393D02*
X033161Y040045D01*
X033161Y039996D01*
X033161Y039246D01*
X033260Y040393D02*
X033260Y043393D01*
X029260Y043393D01*
X029010Y043643D01*
X025510Y047643D01*
X024010Y046143D01*
X019010Y046143D01*
X019010Y041397D01*
X019010Y046143D02*
X019010Y047643D01*
X019010Y049143D01*
X019010Y050643D01*
X019010Y052143D01*
X018010Y052143D02*
X018010Y050643D01*
X016260Y048893D01*
X016260Y048393D01*
X017010Y046643D02*
X018010Y047643D01*
X018010Y049143D01*
X020010Y049143D02*
X020010Y047643D01*
X023510Y047643D01*
X020010Y049143D02*
X020010Y049893D01*
X029260Y049893D01*
X030010Y049893D01*
X030260Y050143D01*
X030260Y051893D01*
X030260Y050143D01*
X031260Y050393D02*
X031260Y051893D01*
X032260Y051893D01*
X033260Y051893D02*
X033260Y043393D01*
X030260Y052393D02*
X030260Y052643D01*
X030760Y053143D01*
X041010Y053143D01*
X044260Y049893D01*
X045260Y048893D01*
X045260Y044393D01*
X045260Y041393D01*
X048260Y041393D01*
X020010Y049893D02*
X020010Y050643D01*
X020010Y052143D01*
X017010Y046643D02*
X017010Y046143D01*
D17*
X017010Y046143D03*
X016260Y048393D03*
X017760Y037893D03*
X022260Y037893D03*
X024260Y037893D03*
X029260Y037893D03*
X030260Y037893D03*
X031260Y037893D03*
X032260Y037893D03*
X039260Y029393D03*
X038260Y027893D03*
X032260Y026893D03*
X026260Y025893D03*
X020260Y024893D03*
X014260Y023893D03*
X031260Y050393D03*
X043260Y040393D03*
X044260Y041393D03*
X045260Y041393D03*
X045010Y027393D03*
D18*
X030260Y051893D02*
X030260Y052393D01*
X020260Y049893D02*
X020010Y050643D01*
X021161Y039996D02*
X021260Y039893D01*
M02*
